<?xml version="1.0" encoding="UTF-8"?>
<svg id="Capa_1" data-name="Capa 1" xmlns="http://www.w3.org/2000/svg" viewBox="0 0 432.12 228.93">
  <defs>
    <style>
      .cls-1 {
        fill: #fff;
      }
    </style>
  </defs>
  <g>
    <path class="cls-1" d="M58.74,94.75c17.26,0,25.94,9.15,25.94,19.01,0,11.38-7.8,18.46-23.79,18.46h-7.4c-1.67,0-1.59,0-1.59,1.59v6.21c0,8.75,4.3,6.84,4.3,9.23,0,.96-1.12,1.19-3.66,1.19h-6.37c-2.31,0-3.58-.24-3.58-1.19,0-2.39,4.38-.48,4.38-9.23v-35.96c0-8.12-4.38-5.97-4.38-8.12,0-1.27,1.27-1.19,3.58-1.19h12.57ZM78.95,115.35c0-9.79-7.64-17.9-20.37-17.9-5.89,0-6.68.48-6.68,2.15v27.85c0,1.27.56,2.15,8.99,2.15,10.18,0,18.06-2.78,18.06-14.24Z"/>
    <path class="cls-1" d="M98.12,124.82c0-17.11,11.94-30.87,29.04-30.87,15.67,0,25.62,11.3,25.62,26.41,0,17.74-11.46,30.87-28.96,30.87-15.99,0-25.7-11.22-25.7-26.41ZM147.61,123.94c0-15.04-8.75-26.65-22.99-26.65s-21.56,12.01-21.56,22.59c0,16.63,9.31,27.77,23.71,27.77,13.53,0,20.84-11.78,20.84-23.71Z"/>
    <path class="cls-1" d="M175.7,150.44c-1.59,0-2.15.72-3.18.72-1.51,0-2.31-1.11-2.86-4.38-.32-1.75-1.04-5.01-1.75-10.9-.24-1.27-.08-2.31.96-2.31.95,0,1.99.64,2.62,2.31,2.31,5.81,6.36,12.25,15.83,12.41,8.91.08,13.05-5.17,13.37-10.9.48-7.4-7.24-9.87-14.08-13.05-7.64-3.58-17.34-6.92-17.34-16.87,0-6.6,5.33-13.37,17.98-13.37,3.26,0,5.81.8,8.35.8,1.67,0,2.15-.8,3.18-.8,1.59,0,1.75.96,2.54,4.22.56,2.07,1.27,4.54,2.07,8.75.32,1.03.24,2.07-.79,2.07-.96,0-1.91-.64-2.71-2.15-2.47-4.06-7.16-9.95-14.8-9.95s-11.22,4.14-11.22,9.47c0,6.84,6.6,8.75,13.76,12.17,8.04,3.82,17.66,6.68,18.14,16.55.48,9.71-8.75,15.91-19.17,15.99-6.12,0-8.43-.8-10.9-.8Z"/>
    <path class="cls-1" d="M225.5,141.53c-2.55,6.6,1.91,5.41,1.91,7.48,0,1.11-1.04,1.43-2.47,1.43h-6.05c-1.59,0-2.79-.24-2.79-1.11,0-2.47,3.74-.64,6.52-7.8l15.44-39.94c1.59-3.98-2.79-3.26-2.79-5.49,0-.72.24-1.35,1.99-1.35h6.21c.72,0,1.27.4,1.51,1.03l17.98,45.83c2.54,6.52,5.81,5.41,5.81,7.48,0,1.11-1.11,1.35-3.58,1.35h-7.16c-1.59,0-2.86-.24-2.86-1.11,0-2.23,4.77-1.59,2.31-7.72l-2.47-6.37q-.88-2.23-13.13-2.23-13.21,0-14.08,2.55l-2.31,5.97ZM252.39,128.56l-11.14-28.16-10.98,28.8q-.56,1.43,11.7,1.43,11.22,0,10.42-2.07Z"/>
    <path class="cls-1" d="M299.65,94.75c23.15,0,31.51,14.96,31.51,26.97,0,14.24-6.84,28.72-29.12,28.72h-17.18c-2.31,0-3.58.08-3.58-1.19,0-2.15,4.38,0,4.38-8.12v-37.07c0-8.12-4.38-5.97-4.38-8.12,0-1.27,1.27-1.19,3.58-1.19h14.8ZM325.66,125.06c0-15.67-10.02-27.69-29.28-27.69-4.69,0-5.81.56-5.81,3.5v42.17c0,3.42,1.83,4.69,10.58,4.69,20.69,0,24.5-12.17,24.5-22.67Z"/>
    <path class="cls-1" d="M348.66,141.53c-2.55,6.6,1.91,5.41,1.91,7.48,0,1.11-1.04,1.43-2.47,1.43h-6.05c-1.59,0-2.79-.24-2.79-1.11,0-2.47,3.74-.64,6.52-7.8l15.44-39.94c1.59-3.98-2.79-3.26-2.79-5.49,0-.72.24-1.35,1.99-1.35h6.21c.72,0,1.27.4,1.51,1.03l17.98,45.83c2.54,6.52,5.81,5.41,5.81,7.48,0,1.11-1.11,1.35-3.58,1.35h-7.16c-1.59,0-2.86-.24-2.86-1.11,0-2.23,4.77-1.59,2.31-7.72l-2.47-6.37q-.88-2.23-13.13-2.23-13.21,0-14.08,2.55l-2.31,5.97ZM375.55,128.56l-11.14-28.16-10.98,28.8q-.56,1.43,11.7,1.43,11.22,0,10.42-2.07Z"/>
  </g>
  <g>
    <path class="cls-1" d="M54.9,208.69c0,2.64,1.36,2.01,1.36,2.98,0,.41-.32.54-1.17.54h-3.05c-.81,0-1.17-.14-1.17-.54,0-.97,1.4-.34,1.4-2.98v-3.23q0-1.02-3.93-1.02-4.11,0-4.11,1.02v3.23c0,2.64,1.38,2.01,1.38,2.98,0,.41-.32.54-1.2.54h-3.02c-.83,0-1.2-.14-1.2-.54,0-.97,1.42-.34,1.42-2.98v-8.76c0-2.64-1.38-2.01-1.38-2.98,0-.41.32-.54,1.2-.54h3.03c.83,0,1.2.14,1.2.54,0,.97-1.42.34-1.42,2.98v2.26q0,1.02,4.13,1.02,3.9,0,3.9-1.02v-2.26c0-2.64-1.35-2.01-1.35-2.98,0-.41.32-.54,1.17-.54h3.05c.81,0,1.17.14,1.17.54,0,.97-1.4.34-1.4,2.98v8.76Z"/>
    <path class="cls-1" d="M62.5,204.93c0-4.83,3.52-8.73,8.37-8.73,4.49,0,7.38,3.29,7.38,7.63,0,4.92-3.41,8.62-8.33,8.62-4.38,0-7.43-3.14-7.43-7.51ZM75.66,205.31c0-3.95-2.21-7.72-5.76-7.72-3.16,0-4.78,2.73-4.78,5.48,0,4.15,2.23,7.83,5.87,7.83,3.16,0,4.67-2.64,4.67-5.6Z"/>
    <path class="cls-1" d="M87.29,212.08c-.61,0-.72.34-1.13.34s-.68-.27-.83-1.22c-.16-.9-.34-1.92-.45-3.23-.05-.54.04-.9.43-.9.36,0,.59.25.93.86.65,1.4,1.92,3.21,4.54,3.23,1.92,0,2.78-1.15,2.82-2.39.07-1.74-1.92-2.53-3.81-3.45-2.39-1.2-4.6-2.1-4.6-4.81,0-2.28,2.05-4.26,5.46-4.26,1.04,0,1.92.27,2.51.27.54,0,.65-.27,1.06-.27.43,0,.61.23.83,1.17.16.75.34,1.58.47,2.64.07.52-.04.88-.45.88-.34,0-.61-.27-.97-.83-.74-1.13-1.99-2.64-3.86-2.64-1.67,0-2.55.93-2.55,2.19,0,1.58,1.49,2.23,3.72,3.36,2.5,1.24,4.83,2.1,4.9,4.72.07,2.93-2.75,4.69-5.78,4.72-1.69,0-2.6-.36-3.23-.36Z"/>
    <path class="cls-1" d="M110.28,208.69c0,2.64,1.35,2.01,1.35,2.98,0,.41-.31.54-1.17.54h-3.04c-.81,0-1.17-.14-1.17-.54,0-.97,1.4-.34,1.4-2.98v-9.95c0-.72-.29-1.06-1.11-1.06-1.62,0-2.01.72-2.78,2.19-.32.61-.54.88-.86.88-.45,0-.52-.38-.5-.88.02-1.17.14-1.94.32-2.59.16-.59.45-.86,1.85-.86l8.76-.02c1.42,0,1.71.27,1.87.88.18.63.27,1.4.32,2.57.02.5-.07.88-.52.88-.32,0-.52-.25-.84-.86-.77-1.47-1.15-2.21-2.78-2.21-.79,0-1.11.34-1.11,1.06v9.97Z"/>
    <path class="cls-1" d="M133.83,208.76c-.07,1.17-.18,1.94-.36,2.6-.16.59-.43.86-1.85.86h-8.87c-.84,0-1.2-.09-1.2-.54,0-1.02,1.42-.2,1.42-2.91v-8.89c0-2.71-1.42-1.9-1.42-2.91,0-.45.36-.54,1.2-.54l8.55-.02c1.31,0,1.56.14,1.76.75.23.61.43,1.38.59,2.37.09.52.07.86-.29.97-.41.11-.65-.11-.99-.7-.84-1.42-1.78-2.14-3.32-2.14h-1.15c-1.99,0-2.3.32-2.3,1.04v2.51c0,1.01.61,1.11,1.6,1.11h.43c2.1,0,1.85-.75,2.55-.75.36,0,.52.23.63.7l.5,2.23c.18.84.09,1.02-.29,1.13-.93.23-1.06-2.1-3.39-2.12h-.43c-.99,0-1.6.09-1.6,1.11v5.33c0,.77.31,1.08,2.37,1.08l1.62-.02c1.76,0,2.19-.75,2.87-2.23.36-.77.63-.95.97-.88.38.09.43.41.41.9Z"/>
    <path class="cls-1" d="M152.02,209.6c.86,1.54,1.8,1.22,1.8,2.08,0,.41-.31.54-1.02.54h-2.89c-.72,0-1.11-.14-1.11-.59,0-.68,1.15-.77.41-2.12l-1.38-2.53c-.41-.7-.77-.83-1.99-.99-1.22-.16-1.85-.23-1.85.52v2.19c0,2.64,1.38,2.01,1.38,2.98,0,.41-.32.54-1.2.54h-3.02c-.83,0-1.2-.14-1.2-.54,0-.97,1.42-.34,1.42-2.98v-8.82c0-2.71-1.42-1.9-1.42-2.91,0-.45.36-.54,1.2-.54h4.51c4.92,0,7.22,2.39,7.22,5.03,0,2.12-1.06,3.59-3,4.31l2.12,3.84ZM150.14,201.74c0-2.26-1.69-4.13-4.54-4.15-1.35,0-1.6.14-1.6.61v5.57c0,.86,1.8,1.06,2.8,1.11,2.12.14,3.34-1.15,3.34-3.14Z"/>
    <path class="cls-1" d="M161.09,199.94c0-2.64-1.38-2.01-1.38-2.98,0-.41.32-.54,1.2-.54h3.02c.84,0,1.2.14,1.2.54,0,.97-1.42.34-1.42,2.98v8.76c0,2.64,1.38,2.01,1.38,2.98,0,.41-.31.54-1.2.54h-3.02c-.84,0-1.2-.14-1.2-.54,0-.97,1.42-.34,1.42-2.98v-8.76Z"/>
    <path class="cls-1" d="M173.82,209.44c-.7,1.8.56,1.49.56,2.23,0,.43-.41.54-.92.54h-1.94c-.63,0-1.04-.11-1.04-.52,0-.79,1.17-.45,1.87-2.26l4.15-10.47c.54-1.35-.77-1.22-.77-2.01,0-.36.2-.54.68-.54h2.3c.36,0,.59.16.72.5l4.92,12.48c.75,1.85,1.67,1.49,1.67,2.26,0,.43-.31.56-1.15.56h-3.14c-.63,0-.99-.14-.99-.52,0-.81,1.44-.54.74-2.3l-.43-1.13q-.27-.68-3.34-.68t-3.43.65l-.47,1.2ZM180.1,205.81l-2.44-6.21-2.42,6.21q-.22.59,2.51.59,2.57,0,2.35-.59Z"/>
    <path class="cls-1" d="M206.84,196.42c6.36,0,8.87,4,8.87,7.63,0,4.33-2.57,8.17-8.26,8.17h-5.62c-.84,0-1.2-.09-1.2-.54,0-1.02,1.42-.2,1.42-2.91v-8.89c0-2.71-1.42-1.9-1.42-2.91,0-.45.36-.54,1.2-.54h5.01ZM212.94,205.22c0-4.33-2.6-7.67-6.84-7.67-1.08,0-1.42.16-1.42.99v11.15c0,.9.38,1.35,2.5,1.35,4.42,0,5.76-2.69,5.76-5.82Z"/>
    <path class="cls-1" d="M234.24,208.76c-.07,1.17-.18,1.94-.36,2.6-.16.59-.43.86-1.85.86h-8.87c-.83,0-1.2-.09-1.2-.54,0-1.02,1.42-.2,1.42-2.91v-8.89c0-2.71-1.42-1.9-1.42-2.91,0-.45.36-.54,1.2-.54l8.55-.02c1.31,0,1.56.14,1.76.75.22.61.43,1.38.59,2.37.09.52.07.86-.29.97-.41.11-.65-.11-.99-.7-.83-1.42-1.78-2.14-3.32-2.14h-1.15c-1.99,0-2.3.32-2.3,1.04v2.51c0,1.01.61,1.11,1.6,1.11h.43c2.1,0,1.85-.75,2.55-.75.36,0,.52.23.63.7l.5,2.23c.18.84.09,1.02-.29,1.13-.93.23-1.06-2.1-3.38-2.12h-.43c-.99,0-1.6.09-1.6,1.11v5.33c0,.77.32,1.08,2.37,1.08l1.62-.02c1.76,0,2.19-.75,2.87-2.23.36-.77.63-.95.97-.88.38.09.43.41.41.9Z"/>
    <path class="cls-1" d="M266.45,209.15c.07,1.94,1.4,1.49,1.4,2.5,0,.43-.32.56-1.11.56h-2.96c-.83,0-1.2-.14-1.2-.56,0-.95,1.31-.63,1.26-2.5l-.2-9.39-5.03,10.95c-.16.29-.32.45-.72.54-.45.11-.68-.04-.79-.29l-4.63-11.04-.32,9.52c-.07,1.69,1.11,1.47,1.11,2.23,0,.43-.32.54-1.02.54h-1.76c-.7,0-1.04-.14-1.04-.54,0-.74,1.26-.54,1.33-2.23l.43-10.27c.07-1.56-1.17-1.47-1.17-2.23,0-.38.25-.52.97-.52h2.21c.36,0,.59.16.75.5l4.56,10.81,4.96-10.81c.16-.34.38-.5.74-.5h2.08c.72,0,.99.14.99.52,0,.81-1.24.56-1.17,2.23l.32,9.97Z"/>
    <path class="cls-1" d="M273.47,204.93c0-4.83,3.52-8.73,8.37-8.73,4.49,0,7.38,3.29,7.38,7.63,0,4.92-3.41,8.62-8.33,8.62-4.38,0-7.43-3.14-7.43-7.51ZM286.63,205.31c0-3.95-2.21-7.72-5.76-7.72-3.16,0-4.78,2.73-4.78,5.48,0,4.15,2.23,7.83,5.87,7.83,3.16,0,4.67-2.64,4.67-5.6Z"/>
    <path class="cls-1" d="M310.03,196.42c.7,0,1.04.11,1.04.54,0,.75-1.22.54-1.22,2.23v12.21c0,.61-.23.81-.7.81-.43,0-.65-.29-.65-.61,0-.52-.18-.95-.63-1.44l-9.71-10.25.02,9.52c.02,1.69,1.24,1.47,1.24,2.23,0,.43-.34.54-1.04.54h-1.76c-.7,0-1.02-.14-1.02-.54,0-.74,1.2-.54,1.2-2.23v-9.57c0-2.71-1.4-1.9-1.4-2.91,0-.45.36-.54,1.17-.54h1.42c.38,0,.61.16.9.45l9.59,10.22-.02-7.9c0-1.69-1.22-1.47-1.22-2.23,0-.43.32-.54,1.02-.54h1.76Z"/>
    <path class="cls-1" d="M324.86,208.69c0,2.64,1.35,2.01,1.35,2.98,0,.41-.31.54-1.17.54h-3.04c-.81,0-1.17-.14-1.17-.54,0-.97,1.4-.34,1.4-2.98v-9.95c0-.72-.29-1.06-1.11-1.06-1.62,0-2.01.72-2.78,2.19-.32.61-.54.88-.86.88-.45,0-.52-.38-.5-.88.02-1.17.14-1.94.32-2.59.16-.59.45-.86,1.85-.86l8.76-.02c1.42,0,1.71.27,1.87.88.18.63.27,1.4.32,2.57.02.5-.07.88-.52.88-.32,0-.52-.25-.84-.86-.77-1.47-1.15-2.21-2.78-2.21-.79,0-1.11.34-1.11,1.06v9.97Z"/>
    <path class="cls-1" d="M337.32,209.44c-.7,1.8.56,1.49.56,2.23,0,.43-.41.54-.93.54h-1.94c-.63,0-1.04-.11-1.04-.52,0-.79,1.17-.45,1.87-2.26l4.15-10.47c.54-1.35-.77-1.22-.77-2.01,0-.36.2-.54.68-.54h2.3c.36,0,.59.16.72.5l4.92,12.48c.74,1.85,1.67,1.49,1.67,2.26,0,.43-.32.56-1.15.56h-3.14c-.63,0-.99-.14-.99-.52,0-.81,1.45-.54.74-2.3l-.43-1.13q-.27-.68-3.34-.68t-3.43.65l-.47,1.2ZM343.59,205.81l-2.44-6.21-2.41,6.21q-.23.59,2.5.59,2.57,0,2.35-.59Z"/>
    <path class="cls-1" d="M369.66,196.42c.7,0,1.04.11,1.04.54,0,.75-1.22.54-1.22,2.23v12.21c0,.61-.23.81-.7.81-.43,0-.65-.29-.65-.61,0-.52-.18-.95-.63-1.44l-9.71-10.25.02,9.52c.02,1.69,1.24,1.47,1.24,2.23,0,.43-.34.54-1.04.54h-1.76c-.7,0-1.02-.14-1.02-.54,0-.74,1.2-.54,1.2-2.23v-9.57c0-2.71-1.4-1.9-1.4-2.91,0-.45.36-.54,1.17-.54h1.42c.38,0,.61.16.9.45l9.59,10.22-.02-7.9c0-1.69-1.22-1.47-1.22-2.23,0-.43.32-.54,1.02-.54h1.76ZM359.3,194.14c0-.77.54-1.47,1.65-1.47,1.38,0,3,.95,3.75.95.5,0,.79-.18.79-.65,0-.56.75-.25.75.68,0,.79-.56,1.47-1.67,1.47s-2.53-.95-3.72-.95c-.5,0-.81.18-.81.68,0,.54-.72.23-.72-.7Z"/>
    <path class="cls-1" d="M379.28,209.44c-.7,1.8.56,1.49.56,2.23,0,.43-.41.54-.92.54h-1.94c-.63,0-1.04-.11-1.04-.52,0-.79,1.17-.45,1.87-2.26l4.15-10.47c.54-1.35-.77-1.22-.77-2.01,0-.36.2-.54.68-.54h2.3c.36,0,.59.16.72.5l4.92,12.48c.75,1.85,1.67,1.49,1.67,2.26,0,.43-.31.56-1.15.56h-3.14c-.63,0-.99-.14-.99-.52,0-.81,1.44-.54.74-2.3l-.43-1.13q-.27-.68-3.34-.68t-3.43.65l-.47,1.2ZM385.55,205.81l-2.44-6.21-2.42,6.21q-.22.59,2.51.59,2.57,0,2.35-.59Z"/>
  </g>
  <g>
    <path class="cls-1" d="M84.73,43.36c-.02.65-.08,1.1-.18,1.43-.09.36-.27.5-.99.5h-4.77c-.47,0-.66-.07-.66-.33,0-.62.78-.14.78-1.68v-4.26c0-1.54-.78-1.06-.78-1.68,0-.26.19-.33.66-.33h4.58c.69,0,.85.06.98.41.11.32.22.72.31,1.22.06.32.04.52-.18.58-.22.07-.37-.04-.56-.34-.46-.75-.96-1.12-1.74-1.12h-.56c-.89,0-1.05.17-1.05.54v1.21c0,.51.28.58.79.58h.12c.98,0,.91-.4,1.31-.4.23,0,.31.14.36.35l.28,1.35c.09.43.04.53-.19.58-.57.13-.64-1.13-1.76-1.13h-.12c-.51,0-.79.06-.79.58v2.58c0,.39.17.56,1.12.56h.78c.83-.01,1.08-.45,1.47-1.28.19-.4.34-.5.53-.45.25.05.26.22.25.54Z"/>
    <path class="cls-1" d="M88.25,45.18c-.34,0-.39.22-.63.22s-.37-.14-.45-.65c-.09-.57-.19-1.11-.24-1.73-.01-.32.05-.52.27-.52.21,0,.31.14.52.5.34.66,1.04,1.62,2.38,1.62.88,0,1.24-.53,1.27-1.09.02-.82-.97-1.25-1.96-1.76-1.29-.65-2.34-1.12-2.34-2.52,0-1.29,1.21-2.35,2.96-2.35.58,0,1.06.17,1.34.17.29,0,.37-.17.6-.17.21,0,.34.12.45.63.09.41.19.9.24,1.42.02.32-.05.52-.3.52-.19,0-.33-.15-.56-.5-.39-.58-1.03-1.33-1.95-1.33-.76,0-1.17.43-1.17,1.02,0,.76.67,1.12,1.9,1.75,1.36.69,2.48,1.15,2.5,2.47.02,1.58-1.5,2.51-3.1,2.51-.89,0-1.41-.21-1.73-.21Z"/>
    <path class="cls-1" d="M99.46,43.31c0,1.41.76,1.08.76,1.64,0,.25-.17.33-.66.33h-1.88c-.47,0-.66-.08-.66-.33,0-.57.78-.24.78-1.64v-4.99c0-.36-.15-.52-.53-.52-.78,0-1,.41-1.43,1.22-.14.3-.26.44-.44.44-.25,0-.31-.2-.3-.52.02-.65.08-1.1.18-1.43.09-.35.27-.5.99-.5h4.72c.72,0,.9.14.98.49.09.34.17.79.18,1.44.01.31-.04.52-.28.52-.18,0-.29-.14-.45-.44-.41-.82-.65-1.23-1.43-1.23-.35,0-.52.18-.52.53v4.99Z"/>
    <path class="cls-1" d="M104.85,43.77c-.37.92.31.77.31,1.19,0,.26-.24.31-.54.31h-1.05c-.38,0-.62-.06-.62-.3,0-.44.64-.32.99-1.21l2.13-5.3c.3-.75-.4-.7-.4-1.15,0-.21.13-.32.38-.32h1.34c.21,0,.36.09.44.3l2.54,6.42c.39.98.88.78.88,1.22,0,.26-.17.34-.63.34h-1.9c-.38,0-.57-.08-.57-.33,0-.46.78-.3.43-1.23l-.18-.43q-.14-.37-1.66-.37t-1.67.33l-.21.51ZM107.83,41.87l-1.1-2.83-1.1,2.79q-.14.35,1.11.35,1.21,0,1.09-.32Z"/>
    <path class="cls-1" d="M120.73,37.02c.4,0,.56.06.56.31,0,.39-.64.36-.64,1.16v6.3c0,.37-.13.5-.43.5s-.43-.17-.43-.37c0-.28-.12-.5-.37-.77l-4.92-5.04.02,4.69c0,.8.64.76.64,1.17,0,.25-.17.3-.54.3h-1.04c-.4,0-.56-.07-.56-.31,0-.39.64-.35.64-1.16v-4.79c0-1.54-.78-1.06-.78-1.68,0-.26.19-.33.66-.33h.95c.25,0,.39.11.57.28l4.72,4.88v-3.69c0-.8-.65-.76-.65-1.17,0-.25.18-.29.56-.29h1.04Z"/>
    <path class="cls-1" d="M123.25,41.31c0-2.45,1.87-4.42,4.32-4.42.73,0,1.16.2,1.44.2s.38-.19.65-.19c.21,0,.34.12.48.63.13.41.26.91.37,1.62.05.32-.01.51-.27.53-.25.02-.35-.17-.59-.52-.54-.79-1.23-1.48-2.27-1.48-1.51,0-2.42,1.26-2.42,2.88,0,2.05,1.1,3.78,2.96,3.78.98,0,1.69-.43,2.32-1.1.28-.31.62.02.41.4-.44.9-1.68,1.75-3.3,1.75-2.41,0-4.09-1.58-4.09-4.09Z"/>
    <path class="cls-1" d="M133.36,38.98c0-1.41-.76-1.08-.76-1.64,0-.25.17-.33.66-.33h1.88c.46,0,.65.08.65.33,0,.57-.77.24-.77,1.64v4.33c0,1.41.75,1.08.75,1.64,0,.25-.17.33-.65.33h-1.88c-.47,0-.66-.08-.66-.33,0-.57.78-.24.78-1.64v-4.33Z"/>
    <path class="cls-1" d="M139.26,43.77c-.37.92.31.77.31,1.19,0,.26-.24.31-.54.31h-1.05c-.38,0-.62-.06-.62-.3,0-.44.64-.32.99-1.21l2.13-5.3c.3-.75-.4-.7-.4-1.15,0-.21.13-.32.38-.32h1.34c.21,0,.36.09.44.3l2.54,6.42c.39.98.88.78.88,1.22,0,.26-.17.34-.63.34h-1.9c-.38,0-.57-.08-.57-.33,0-.46.78-.3.43-1.23l-.18-.43q-.14-.37-1.66-.37t-1.67.33l-.21.51ZM142.24,41.87l-1.1-2.83-1.1,2.79q-.14.35,1.11.35,1.21,0,1.09-.32Z"/>
    <path class="cls-1" d="M285.24,43.55c.05,1.06.79.78.79,1.4,0,.26-.17.34-.63.34h-1.82c-.46,0-.65-.08-.65-.34,0-.58.69-.37.67-1.4l-.09-4.47-2.5,5.38c-.09.2-.19.28-.43.34-.26.05-.4-.04-.46-.2l-2.29-5.45-.15,4.66c-.04.8.59.76.59,1.17,0,.25-.18.3-.54.3h-1.05c-.4,0-.56-.07-.56-.31,0-.39.67-.35.71-1.16l.22-5.25c.04-.84-.66-.75-.66-1.22,0-.25.17-.33.57-.33h1.37c.21,0,.37.09.45.3l2.22,5.21,2.41-5.2c.09-.21.24-.31.45-.31h1.3c.4,0,.57.08.57.33,0,.48-.7.34-.66,1.22l.17,4.99Z"/>
    <path class="cls-1" d="M288.72,38.98c0-1.41-.76-1.08-.76-1.64,0-.25.17-.33.66-.33h1.88c.46,0,.65.08.65.33,0,.57-.77.24-.77,1.64v4.33c0,1.41.75,1.08.75,1.64,0,.25-.17.33-.65.33h-1.88c-.47,0-.66-.08-.66-.33,0-.57.78-.24.78-1.64v-4.33Z"/>
    <path class="cls-1" d="M299.63,43.8c.46.82.97.65.97,1.16,0,.25-.17.33-.6.33h-1.74c-.38,0-.57-.08-.57-.34,0-.41.6-.5.21-1.21l-.66-1.18c-.18-.34-.37-.41-.91-.5-.52-.07-.84-.09-.84.27v.98c0,1.41.75,1.08.75,1.64,0,.25-.17.33-.65.33h-1.88c-.47,0-.66-.08-.66-.33,0-.57.78-.24.78-1.64v-4.29c0-1.54-.78-1.06-.78-1.68,0-.26.19-.33.66-.33h2.58c2.54,0,3.77,1.25,3.77,2.66,0,1.08-.51,1.87-1.49,2.26l1.06,1.87ZM298.34,39.83c0-1.17-.83-2.12-2.12-2.12-.64-.01-.73.06-.73.31v2.81c0,.39.66.51,1.17.56,1.15.12,1.68-.65,1.68-1.56Z"/>
    <path class="cls-1" d="M303.95,43.77c-.37.92.31.77.31,1.19,0,.26-.24.31-.54.31h-1.05c-.38,0-.62-.06-.62-.3,0-.44.64-.32.99-1.21l2.13-5.3c.3-.75-.4-.7-.4-1.15,0-.21.13-.32.38-.32h1.34c.21,0,.36.09.44.3l2.54,6.42c.39.98.88.78.88,1.22,0,.26-.17.34-.63.34h-1.9c-.38,0-.57-.08-.57-.33,0-.46.78-.3.43-1.23l-.18-.43q-.14-.37-1.66-.37t-1.67.33l-.21.51ZM306.93,41.87l-1.1-2.83-1.1,2.79q-.14.35,1.11.35,1.21,0,1.09-.32Z"/>
    <path class="cls-1" d="M318.17,43.36c-.02.65-.08,1.1-.18,1.43-.09.36-.27.5-.99.5h-4.3c-.47,0-.66-.07-.66-.33,0-.62.78-.14.78-1.68v-4.29c0-1.41-.76-1.08-.76-1.64,0-.25.17-.33.66-.33h1.88c.46,0,.65.08.65.33,0,.57-.77.24-.77,1.64v5.01c0,.38.17.54.91.54h.53c.83-.01,1.08-.45,1.47-1.28.19-.4.34-.5.53-.45.25.05.26.22.25.54Z"/>
    <path class="cls-1" d="M326.6,43.36c-.02.65-.08,1.1-.18,1.43-.09.36-.27.5-.99.5h-4.77c-.47,0-.66-.07-.66-.33,0-.62.78-.14.78-1.68v-4.26c0-1.54-.78-1.06-.78-1.68,0-.26.19-.33.66-.33h4.58c.69,0,.85.06.98.41.11.32.22.72.31,1.22.06.32.04.52-.18.58-.22.07-.37-.04-.56-.34-.46-.75-.96-1.12-1.74-1.12h-.56c-.89,0-1.05.17-1.05.54v1.21c0,.51.28.58.79.58h.12c.98,0,.91-.4,1.31-.4.23,0,.31.14.36.35l.28,1.35c.09.43.04.53-.19.58-.57.13-.64-1.13-1.76-1.13h-.12c-.51,0-.79.06-.79.58v2.58c0,.39.17.56,1.12.56h.78c.83-.01,1.08-.45,1.47-1.28.19-.4.34-.5.53-.45.25.05.26.22.25.54Z"/>
    <path class="cls-1" d="M331.73,38.98c0-1.41-.75-1.08-.75-1.64,0-.25.17-.33.65-.33h1.89c.46,0,.65.08.65.33,0,.57-.77.24-.77,1.64v2.81c.01,2.12-.45,3.59-2.77,3.59-1.55,0-2.33-.98-2.33-1.99,0-.56.35-.83.76-.83.49,0,.73.34.79.76.12.75.34,1.23.91,1.23.66,0,.96-.76.96-2.07v-3.51Z"/>
    <path class="cls-1" d="M336.06,41.47c0-2.53,1.87-4.58,4.4-4.58,2.38,0,3.9,1.74,3.9,4.02,0,2.55-1.83,4.49-4.4,4.49-2.25,0-3.9-1.63-3.9-3.94ZM342.73,41.81c0-2-1.08-4.08-2.83-4.08-1.48,0-2.21,1.28-2.21,2.66,0,2.05,1.1,4.08,2.89,4.08,1.5,0,2.15-1.21,2.15-2.66Z"/>
    <path class="cls-1" d="M347.97,45.18c-.34,0-.39.22-.63.22s-.37-.14-.45-.65c-.09-.57-.19-1.11-.24-1.73-.01-.32.05-.52.27-.52.21,0,.31.14.52.5.34.66,1.04,1.62,2.38,1.62.88,0,1.24-.53,1.27-1.09.02-.82-.97-1.25-1.96-1.76-1.29-.65-2.34-1.12-2.34-2.52,0-1.29,1.21-2.35,2.96-2.35.58,0,1.06.17,1.34.17.29,0,.37-.17.6-.17.21,0,.34.12.45.63.09.41.19.9.24,1.42.02.32-.05.52-.3.52-.19,0-.33-.15-.56-.5-.39-.58-1.03-1.33-1.95-1.33-.76,0-1.17.43-1.17,1.02,0,.76.67,1.12,1.9,1.75,1.36.69,2.48,1.15,2.5,2.47.02,1.58-1.5,2.51-3.1,2.51-.89,0-1.41-.21-1.73-.21Z"/>
  </g>
  <g>
    <path class="cls-1" d="M207.83,48.46c-1.47,1.56-3.21,3.21-5.31,4.91-3.93,3.21-7.95,5.76-12.54,5.76-3.62,0-7.55-2.14-7.55-7.05,0-6.88,7.81-13.3,15.67-13.3,3.57,0,7.05,1.96,10.49,4.73,2.59-5.76,3.48-11.79,5.09-15.98,3.3-8.44,11.43-11.03,17.68-11.03,4.87,0,7.9,1.21,7.9,2.01,0,1.29-1.83,2.95-3.21,2.95-2.63,0-5.45-1.65-9.6-3.62-2.23.45-4.51,1.47-7.95,10.76-2.41,6.47-3.97,11.43-7.9,16.61,7.68,6.79,15.22,16.52,23.04,16.52,2.5,0,4.55-1.12,5.62-2.19l.36.36c-1.88,1.74-4.96,4.33-10.18,4.33-8.71,0-15.04-8.88-21.61-15.76ZM193.41,56.72c2.46-.04,5.62-1.25,8.62-3.97,1.88-1.7,3.39-3.57,4.6-5.54-3.75-3.75-7.63-6.65-12.1-6.65-5.54,0-8.53,4.6-8.53,9.24,0,5.36,4.24,6.96,7.41,6.92Z"/>
    <path class="cls-1" d="M235.69,50.06c0-3.12,2.05-7.28,4.24-11.03-6.74,8.17-12.59,13.97-15.45,13.84-1.96-.09-2.9-1.74-2.86-4.11.13-8.44,9.51-18.93,18.75-18.93,1.56,0,4.73.31,6.92.98l.76.22c.62.18.8.58.45,1.12-1.56,2.32-3.88,6.07-5.45,9.11-1.47,2.99-2.59,5.36-2.59,7.46,0,.8.36,1.29,1.16,1.29.94,0,2.41-.98,3.93-2.41l.4.45c-3.71,3.44-6.16,4.82-7.54,4.82-2.14,0-2.72-1.7-2.72-2.81ZM227.38,50.02c2.01,0,7.63-5.58,15.49-15.67l.58-.89c-2.23-.89-5.4-1.79-7.14-1.79-6.29,0-10.22,11.39-10.22,15.85,0,.85.04,2.5,1.29,2.5Z"/>
  </g>
</svg>