<?xml version="1.0" encoding="UTF-8"?>
<svg id="Capa_1" data-name="Capa 1" xmlns="http://www.w3.org/2000/svg" viewBox="0 0 335.33 308.67">
  <defs>
    <style>
      .cls-1 {
        fill: #fff;
      }
    </style>
  </defs>
  <g>
    <path class="cls-1" d="M189.26,127.9c29.23,0,43.92,15.49,43.92,32.2,0,19.26-13.2,31.26-40.28,31.26h-12.53c-2.83,0-2.69,0-2.69,2.69v10.51c0,14.82,7.28,11.59,7.28,15.63,0,1.62-1.89,2.02-6.2,2.02h-10.78c-3.91,0-6.06-.4-6.06-2.02,0-4.04,7.41-.81,7.41-15.63v-60.89c0-13.74-7.41-10.1-7.41-13.74,0-2.15,2.16-2.02,6.06-2.02h21.29ZM223.48,162.8c0-16.57-12.93-30.31-34.49-30.31-9.97,0-11.32.81-11.32,3.64v47.15c0,2.16.94,3.64,15.22,3.64,17.24,0,30.58-4.72,30.58-24.11Z"/>
    <path class="cls-1" d="M143.43,135.5c-2.49,2.65-5.44,5.44-9,8.32-6.65,5.44-13.46,9.75-21.24,9.75-6.12,0-12.78-3.63-12.78-11.95,0-11.64,13.23-22.53,26.54-22.53,6.05,0,11.94,3.33,17.77,8.01,4.38-9.75,5.9-19.96,8.62-27.06,5.59-14.29,19.35-18.67,29.94-18.67,8.24,0,13.38,2.04,13.38,3.4,0,2.19-3.1,4.99-5.44,4.99-4.46,0-9.22-2.8-16.25-6.12-3.78.76-7.63,2.5-13.46,18.22-4.08,10.96-6.73,19.35-13.38,28.12,13,11.49,25.78,27.97,39.01,27.97,4.23,0,7.71-1.89,9.53-3.7l.6.61c-3.17,2.95-8.39,7.33-17.24,7.33-14.74,0-25.48-15.04-36.59-26.69ZM119.01,149.49c4.16-.08,9.53-2.12,14.59-6.73,3.17-2.87,5.75-6.05,7.79-9.37-6.35-6.35-12.93-11.26-20.49-11.26-9.37,0-14.44,7.79-14.44,15.65,0,9.07,7.18,11.79,12.55,11.72Z"/>
  </g>
  <path class="cls-1" d="M166.8,276.33c-68.67,0-124.54-55.87-124.54-124.54S98.13,27.26,166.8,27.26s124.53,55.87,124.53,124.53-55.87,124.54-124.53,124.54ZM166.8,30.26c-67.01,0-121.54,54.52-121.54,121.53s54.52,121.54,121.54,121.54,121.53-54.52,121.53-121.54S233.81,30.26,166.8,30.26Z"/>
</svg>