<?xml version="1.0" encoding="UTF-8"?>
<svg id="Capa_1" data-name="Capa 1" xmlns="http://www.w3.org/2000/svg" viewBox="0 0 500 500">
  <defs>
    <style>
      .cls-1 {
        fill: #566045;
        stroke: #575941;
        stroke-miterlimit: 10;
      }
    </style>
  </defs>
  <g id="_2iRa05" data-name="2iRa05">
    <g>
      <path class="cls-1" d="M380.81,142.49l-44.43,10.95c-.76-3.14,4.14-3.6,5.92-4.26,12.17-4.52,25.81-7.14,38.5-6.69Z"/>
      <path class="cls-1" d="M122.06,146.14c-2.53,3.84-2.1-9.15-2.02-10.43.13-2.08-.11-4.03,1.54-5.41,2.92,4.89.71,10.53.48,15.84Z"/>
      <path class="cls-1" d="M156.64,159.54c5.61-2.29,4.5,10.99,2.46,10.93-2.31-2.75-2.57-7.2-2.46-10.93Z"/>
      <path class="cls-1" d="M363.03,186.33c-2.84.85-7.19-8.17-5.92-9.73,2.4-2.95,6.78,7.29,5.92,9.73Z"/>
      <path class="cls-1" d="M142.8,144.92c-.26,3.71.38,7.99,0,11.59-.17,1.67-.69,3.77-1.97,1.81,0-3.12-.91-5.55-.76-8.79.07-1.62.39-5.63,2.73-4.61Z"/>
      <path class="cls-1" d="M224.77,109.58c-1.56,1.46-.02,2.23,1.46,2.44,3.22.47,7.66,1.05,10.84,1.27,44.55,3.01,90.73-1.78,135.35-4.91,17.27-1.21,34.6-.92,51.84-3.66l-10.85,14.02c-1.29,3.86,4.99-.58,5.91.6,1.01,16.88-15.88,13.93-24.68,10.96.16,6.69-.23,13.45-.05,20.15,1.77,64.6,1.59,127.84,0,192.4-.18,7.51.21,15.09.05,22.58,4.07-.7,13.13-2.95,16.36-.08,2.88,2.56,8.63,18.87,6.46,22.5l-138.31,5.52.52-3.68c22.3-6,45.31-5.93,68.05-7.21,14.39-.81,29.09-1.52,43.47-2.41,6.02-.37,12.79,1.5,18.25-1.83-4.45-10.33-8.74-5.18-15.3-5.38-32.93-.98-61.64-1.23-94.8,1.11-31.49,2.22-65.87-.7-97.79-2.43-8.13-.44-18.51-2.65-25.66-2.55-6.76.09-15.33,4.31-22.73,4.96-21.69,1.92-45.15-.79-66.22-6.9-2.97.58-3.24,19.08-4.39,22.74,4.41.7,8.92,1.83,13.34,2.44,24.22,3.33,49.71,1.07,74.05-1.22,18.55-1.75,37.15-6.12,55.8-6.07-.62,1.78-4.95,1.91-6.58,2.23-36.63,7.17-82.49,15.06-119.33,12.37-3.94-.29-20.46-2.49-22.79-4.78-.57-.56-1.11-1.26-1.28-2.14-.71-3.6,6.59-26.7,4.8-33.27l32.6,3.67c-1.1-14.74-.38-29.71-1-44.46-1.05-25.05-4.8-50.45-4.97-75.5-.25-37.13,3.46-74.89,2.62-111.96-.03-1.39-.5-2.92-.74-4.29-8.73,1.66-19.3-11.96-15.18-22.11,2.36-5.81,30.49-3.37,36.59-3.58,46.21-1.63,99.38-2.75,145.14,4.81.84.14,1.46.33,1.98,1.23l-1,2.44h-51.85ZM405.5,113.25c-18.25,1.42-36.57,1.47-54.85,2.37-63.8,3.14-125.84,1.61-189.62-1.12-16.83-.72-37.86-4.07-54.32-2.54-1.76.16-3.22-.37-4.38,1.88.96,1.8.56,2.33,2.34,3.26,3.86,2.03,12.41,2.89,16.91,3.43,34.79,4.21,72.63,5.7,107.68,7.27,50.67,2.27,108.56,3.34,158.84-4.97,6.63-1.1,13.76-1.55,17.4-9.59ZM128.98,364.22h28.64c-.57-4.72-.95-9.25-1.04-14.07-.05-3.08,1.19-6.24,1.02-8.43-.24-3.26-3.99-6.1-4.02-12.21-.04-8.74,5.66-15.32,6.01-19.57.2-2.46-2.66-13.76-2.95-18.23-.33-5.22-.62-28.24.92-31.43.77-1.59,4.38-2.61,4.8-5.28.3-1.93-2.36-7.83-2.67-10.9-1.62-15.63,5.48-22.92,8.36-34.56,2.44-9.88.14-11.37,8.02-19.34,9.31-9.41,43.91-22.37,56.13-23.34,8.87-.7,15.2.16,14.31,13.39l18.77-2.45-2.86-9.16c2.03-3.3,5.23-3.08,8.29-3.09,11.87-.06,39.39,3.47,47.78,14.22,6.47,8.29-.83,9.28,2.75,16.4,6.62,3.26,11.3-3.78,18.53-2.46s18.33,15.31,12.42,24.29c5.56-.75,2.12-10.31,1.98-14.61,9.84,9.31-1,23.55-10.87,20.72-.9,9.66,4.68,7.31,9.59,10.7,5.53,3.82,6.23,9.68,7.08,16.85,2.26,18.93,3.4,94.83-5.79,108.31-1.12,1.64-3.46,2-3.97,4.24h26.17l7.9-74.33c2.51,24.94-3.68,49.53-3.46,74.34h9.89s-2.21-231.2-2.21-231.2c-1.53-1.37-3.21-1.51-5.04-1.42-9.76.5-23.41,5.43-33.88,7.05-47.3,7.32-101.49,9.82-148.84,2.44-17.39-2.71-34.41-8.96-51.64-11.84-10.77-1.8-21.72-1.84-32.49-3.52-1.04.23-1.3,1.59-1.44,2.73-.97,7.84.27,19.57.04,28.08-1.02,37.73-2.34,76.65-1.08,114.53.61,18.19,3.49,36.55,4.04,54.72.39,12.91-1.12,25.57-1.03,38.43l9.87-.02c-2.42-17.71-2.06-35.65-1.96-53.59,3.7,4.52,1.62,14.89,1.92,21.37.5,10.69,1.91,21.5,2.02,32.24ZM274.87,173.2c-1.45.4-2.7,1.39-3.66,2.78,8.35,10.41,15.2-6,3.66-2.78ZM284.03,180.24c2.54.66,13.39,3.8,11.77-2.92-1.04-4.32-13.26-6.11-11.77,2.92ZM238.6,175.38c-2.16-2.65-25.68,4.88-29.84,6.43-2.28.85-13.21,4.14-12.62,7.55.35,2.06,2.81,1.78,4.17,1.59,7.08-.98,27.85-6.86,34.57-9.82,2.54-1.12,4.26-1.74,3.72-5.76ZM300.82,176.6c-4.21,9.7,12.56,15.4,13.81,10.31,1.25-5.54-13.07-11.29-13.81-10.31ZM186.17,191.33c-4.29-1.5-9.95,3.52-11.31,8.35-4.29,15.14,16.36,2.47,11.31-8.35ZM340.59,214.03c1.23,1.57,5.9,3.61,7.69,2.25,5.64-5.05-9.69-25.84-15.84-14.71,1.21,2.74,4.72,4.41,5.94,6.37.97,1.57,1.11,4.67,2.22,6.09ZM175.39,214.38c-10.3-1.23-12.24,30.26-7.88,35.32,2.49,1.21,2.66-4.82,2.83-6.85.87-10.51-.81-18.98,5.06-28.47ZM347.24,239.95c-.54,6.87-.22,10.07,5.44,12.14,3.68-.36-.87-14.43-5.44-12.14ZM271.56,325.94c22.26-.49,44.58.37,66.82,0l-6.6-36.19-18.35,18.06c-2.92-2.56-4.39-59.95-4.43-68.83-2.65-3.68-14.55,19.85-16.88,19.88l-8.81-43.41c-3.95.05-18.41,84.17-31.17,88.48-7.79,2.64-9.51-11.48-14.36-16.01l-8.04,15.38c3.34,3.59,7.47,2.85,11.78,5.34,6.97,4.02,15.52,16.24,21.93,18.3,5.24,1.67,6.05-.95,8.1-1ZM349.34,265.36c12.89,1.87,1.26-16.27-1.01-7.56l1.01,7.56ZM170.45,263.1l-6.95,3.25c.47,13.62-1.56,27.75,3.02,40.6,2.17,2.47,2.88-5.94,2.94-6.71.9-11.76-.46-25.08.99-37.14ZM355.14,283.81c.33-6.09.71-14.11-6-11.67-1.91,1.71-.83,8.98.21,11.49l5.79.17ZM355.14,289.9l-6.48,1.14c-1.04,3.57-.47,7.51.68,10.88l5.37-.98.43-11.05ZM203.28,280.11c-2.19,7.91-10.46,33.7-4.24,39.11,4.33,3.76,16.76-.29,20.59-5.08,1.61-2.02,17.56-37.11,17.33-39.33-.41-3.96-11.1-26.97-13.31-24.86-2.51,5.41-5.56,45.97-12.21,40.19-.56-5-3.42-10.8-8.16-10.03ZM355.14,317.93c2.48-14.06-10.55-13.16-5.79-.18l5.79.18ZM167.17,316.86c-2.55.85-6.84,10.16-6.41,13.59.75,6,9.43,7.93,10.55,3.75.39-3.63,1-19.05-4.13-17.34ZM245.51,344.72c1.06,1.42,5.84-4.84,4.48-8.48-1-2.68-14.97-16.72-17.37-17.75-3.01-1.29-11.51,10.57-2.45,9.16,2.63-1.53-.34-4.14,1.01-6.06,6.04,4.66,7.37,7.67,2,14.54l-9.39-7.24c-3.18,5.38,9.85,12.26,12.82,7.31l.15,4.67c7.14,3.92,5.53-5.36.85-8.95,4.1-1.04,5.19,8.99,10.85,4.27l-2.95,8.52ZM308.24,320.36l-2.46,5.41c8.5,8.72,5.61-6.37,2.46-5.41ZM355.13,325.23c-8.53-4.31-7.3,28.89-5.91,30.46,3.4.18,3.85-6.48,4.47-9.7,1.3-6.77,1.67-13.81,1.44-20.76ZM203.04,334.97c-1.72-7.39-16.17-1.76-12.84,2.45l12.84-2.45ZM281.06,338.64c-4.98.6-15.04-2.81-14.8,6.08,3.75-2.66,5.48,2.4,5.92,6.52l1.95.78,6.93-13.39ZM287.98,343.52c-1.16-1.44-10.73,10.19-9.87,13.39,1.7-.82,10.7-12.35,9.87-13.39ZM173.41,360.55c-.97-4.6.34-15.22-4.48-15.83-8.96-1.15-6.75,21.7,4.48,15.83ZM255.39,356.9c2.48-.19,10.95,3.87,10.91-1.82-.02-2.13-7.51-11.83-10.25-10.43l-2.63,6.16,2.97-4.86,2.92,1.9-3.92,9.05ZM340.1,363.97c2.62-2.33-.23-15.38-.27-19.23-7.07,16.08-11.49,11.09-22.24,4.22l-12.81,17.69c5.72-.61,31.94.33,35.33-2.68ZM183.92,360.13c-.54.81-2.55,1.54-2.58,2.26l1.59,1.67c6.93-.06,15.93,2.97,22.58,2.71,1.8-.07,3.26.17,4.43-1.93-3.49-4.82-9.78-9.52-7-16.97-9.41-7.14-14.12,4.95-19.02,12.27ZM220.58,347.46c-.32-.41-5.49-3.11-4.68.29.6,2.54,7.28,10.96,8.87,9.16.59-3.12-2.19-2.85-3.02-4.49-.71-1.4-.46-4.05-1.16-4.95ZM212.08,353.09c-.44-.44-.37-4.8-2.63-5.91-1.9-.93-1.69,1.74-1.45,3.01.69,3.64,6.39,8.92,8.86,11.6l-1.04-8.46c-1.06-.42-3.03.48-3.74-.23ZM308.71,348.39l-3.95,3.03-4.92,11.59c.95,1.29,10.79-12.01,8.87-14.61ZM227.74,366.66h24.69l-10.15-7.58c-5.93-3.55-11.06,1.98-14.54,7.58ZM281.06,366.67c-4.47-.82-7.04-6.18-11.84-4.88-1.02,5.34,5.17,5.96,8.36,6.14,1.08.06,3.75.76,3.48-1.25Z"/>
    </g>
  </g>
</svg>