<?xml version="1.0" encoding="UTF-8"?>
<svg id="Capa_1" data-name="Capa 1" xmlns="http://www.w3.org/2000/svg" viewBox="0 0 500 500">
  <defs>
    <style>
      .cls-1 {
        fill: #566045;
      }
    </style>
  </defs>
  <g id="Xs513S">
    <g>
      <path class="cls-1" d="M389.08,350.72c2.87.77,13.98,7.36,12.6,15.23-15.45-.54-30.97,2.26-46.13-3.98-76.46-10.99-166.61,15.42-241.46-.28-4.1-.86-12.14-2.78-13.89-10.94,23.87,8.16,23.94-14.75,21.02-51.5-.45-5.72,1.24-6.04-3.14-5.62-29.88,2.88-8.04,38.25-26.26,60.88,2.84-45.93-.33-86.69,33.59-76.1-5.88-18.74,1.22-34.68,2.1-53.19-27.85,10.9-22.32-43.09-19.04-74.42,62.47-7.87,125.48-10.25,188.25-12.91,9.68-.41,21.73-12.57,29.26,3.77,6.16,13.37,9.63,56.76,14.26,63.63,4.8,7.1,36.39,2.62,44.5,4.94,19.09,5.46,12.24,53.46,13.97,77.4.98,13.62,5.8,29.09,7.58,43.31.92,7.29,3.97,18.48-.41,23.49-8.38-12.21-6.55-37.91-11.48-51.4-6.89-18.86-27.98-5.82-38.84-5.39-76.77,3.08-153.63-2.2-230.14-3.96,3.17,20.23,1.78,36.82,0,57.02h263.67ZM327.1,175.75c-3.07-14.25-7.16-21.07-15.71-22.86-22.17-4.65-54.64,6.81-77.69,7.85-33.24,1.5-66.66-1.42-99.89-.18v45.68l194.36,3.78,5.17-5.66-4.15-24.78-170.15,11.41c-3.41-4.7.04-6.89,3.1-7.59,17.55-4.06,40.57.27,58.84-3.84,35.14-14.59,70.62-11.02,106.12-3.79ZM129.62,160.55c-.48-.85-9.16-.31-11.16.76-8.64,4.62-8.3,31.69-7.77,44.91l18.93-.06c-1.99-8.26,1.67-42.66,0-45.62ZM387.49,226.2c-6.97-13.33-40.07-1.2-50.85-.82-59.89,2.08-119.86,2.22-179.73,3.63-.6,16.43,1.87,34.07-2.09,49.42,74.24,5.82,148.99,3.79,223.54,3.47,15.16,5.6,14.47-45.45,9.12-55.7ZM152.71,229.04c-23.68,1.69-19.19,15.42-25.19,49.41l25.21-.02-.02-49.39Z"/>
      <path class="cls-1" d="M383.81,320.32l-3.1,7.59-221.69,3.76c.79-6.91,4.13-7.07,7.28-7.71,21.05-4.28,47.52,1.84,69.49.3,14.42-1.01,31.66-7.06,46.05-7.92,34.07-2.03,68,3.09,101.97,3.98Z"/>
      <path class="cls-1" d="M383.81,255.67l-3.1,7.59-221.68,3.78c-3.41-4.7.04-6.89,3.1-7.59,21.85-5.05,50.64,1.98,73.66.16s47.68-8.76,71.28-11.77l76.74,7.83Z"/>
    </g>
  </g>
</svg>