<?xml version="1.0" encoding="UTF-8"?>
<svg id="Capa_1" data-name="Capa 1" xmlns="http://www.w3.org/2000/svg" viewBox="0 0 500 500">
  <defs>
    <style>
      .cls-1 {
        fill: #566045;
      }
    </style>
  </defs>
  <g id="eW61Ft">
    <g>
      <path class="cls-1" d="M351.31,94.76c5.32,4.83,6.02,10.93,6.54,18.08,1.59,22.13-.69,48.12-2.05,70.23h5.93c-1.35-5.43.4-26.1,3.87-28.85l23.52,3.44-3.58,28.58-2.99,2.04c-4.85.54-12.7-6.93-16.81-.29,6.38,9.73,3,21.61,4.1,32.45,13.76.54,24.51,10.67,29.18,22.99-16.96,12.58-42.84-7.4-41.23,24.64l46.18.27c10.23,3.5,9.11,48.52,9.17,58.03.06,10.46-.71,16.33-1.1,26.11-.56,14.32,3.17,51.56-15.62,54.08-19.68,2.64-45.63-1.87-66-.43-2.37-6.28-5.77-12.83-7.31-19.37-3.1-13.24-2.65-28.83-3.1-42.57-.19-5.76,4.12-11.43-.78-14.78-10.89,7.95-26.48,1.76-39.1,4.35-5.32,1.09-11.45,6.53-17.61,8.08-19.26,4.86-19.02-5.34-32.39-8.38-12.8-2.92-31.37,1.28-44.98-.44l-3.27-2.87.91-6.72c-4.65-1.13-2.85,4.09-2.95,6.91-.5,15.28.86,35.4-.11,49.16-.19,2.67-4.67,21.21-5.77,22.06-3.07,1.09-6.29,1.88-9.5,2.35-14.15,2.06-46.7,2.67-60.61.46-10.33-1.64-11.13-12.09-12.72-20.87-2.75-15.13-4.27-41.45-4.28-57.02-.01-10.47,2.18-48.5,9.18-54.25,9.43-7.75,39.34-3.73,52.19-6.15l-7.22-17.95c-8.4-.9-16.66-.69-25.42-1.38-3.24-.26-11.06,3.91-12.53-3.67-1.5-7.79,9.28-9.41,11.01-11.14,1.24-1.24.93-4.95,3.38-7.47,2.77-2.85,9.35-3.75,12.02-7.79l1.96,3.94c9.86-6.01,4.56-16.13,8.69-25.47-8.22-4.39-18.27-7.15-27.43-4.16-4.52-23.99-10.29-37.9,21.51-33.41,5.2,9.84-3.71,29.16,10.09,31.4l.02-86.96c4.46-1.04,3.21.64,4.54,2.46,7.8,10.7,1.29,26.86,1.46,38.16.2,13.44,3.68,28.34,1.91,42.39l7.43-2.87-3.19-66.88c6.57-11.34,20.05-5.03,28.47-5.29,40.51-1.22,82.02-2.55,122.39-2.14,7.03.07,32.26-2.01,34.22,3.29l.47,69.96h5.91c2.65-26.39,1.91-52.57-.18-78.9-12.57-6.16-22.49-2.08-34.47-2.07-52.26.05-105.08-2.2-156.22,7.6l-8.79-7.68,64.17-6.05,71.32.18c8.8-3.71,15.93.03,23.63.06,14.42.05,29.17-2.41,43.96.49ZM244.51,187.96c-26.92,1.49-65.28,4.1-91.31,9-12.32,2.32-7.39,15.69-7.34,22.7.03,3.57-1.72,6.32-1.2,11.29.69,6.61,20.32,63.98,23.24,65.9,14.2,3.21,28.28.42,42.69.81,36.34.96,80.51,3.85,116.54.09,10.23-1.07,11.99-2.86,15.77-11.91,4.48-10.75,17.27-51.7,18.66-62.38,2.33-17.99-3.12-29.27-21.11-32.07-27.06-4.21-67.94-4.97-95.94-3.42ZM136.35,224.59c-5.7-2.95-22.42,13.45-19.75,15.82h21.73s-1.98-15.82-1.98-15.82ZM389.4,240.4c-3.85-6.75-10.33-10.98-17.68-13.04-4.88-1.13-7.31,11.78-6.05,13.05h23.72ZM333.06,303.68c-11.16.36-22.44,0-33.61,0-2.65,0-10.04,4.03-14.84,1.98l.02,5.92c12.23-1.51,23.3-2.82,35.58.03-4.64,11.74-20.49.72-25.7,9.84,8.52.33,15.41-3.99,23.71.05l-21.72,3.95c-.52,3.3,4.76,2.11,6.98,2.05,5.68-.17,10.99-1.62,16.56-2.24l2.16-19.59,14.83-1.98c2-5.35-3.65-.01-3.97,0ZM191.7,303.69c-8.06,4.41-25.15-3.17-23.7,9.87,3.63,1,4.63-2.88,7.36-3.56,2.21-.55,4.79,1.16,8.29.5,1.44-.27,9.95-3.06,8.05-6.81ZM237.18,325.41c-9.94-8.97-27.15-5.04-39.53-5.89l39.53,5.89Z"/>
      <path class="cls-1" d="M176.87,201.69c22.74-.88,31.21,39.53,8.39,47.09-27.46,9.09-43.63-25.12-19.9-41.63,2.04-1.42,9.5-5.38,11.51-5.46ZM171.36,213.1c-17.17,5.22-2.87,39.95,15.52,15.58,8.33-11.04-5.69-18.57-15.52-15.58Z"/>
      <path class="cls-1" d="M341.29,201.66c13.22,8.28,14.82,38.3-2.71,42.29-48.75,11.08-30.79-63.27,2.71-42.29ZM339.51,211.24c-9.26-9.13-28.87,10.2-17.25,20.19,10.52,9.03,25.93-11.62,17.25-20.19Z"/>
      <path class="cls-1" d="M290.56,213.73c.38-2.8,3.24-13.32,6.94-8.92,5.29,6.3,1.15,25.62,1.16,32.86.02,12.58,8.38,30.32-8.1,36.36,1.85-18.8-2.5-42.08,0-60.3Z"/>
      <path class="cls-1" d="M236.64,207.37c3.98,4.59.11,9.27.48,14.17.86,11.55,4.72,34.49,2.08,45.16-.24.98-7.64,5.73-7.92,5.35,1.99-22.36-3.39-45.68,0-67.22.25-.18,4.84,1.93,5.36,2.54Z"/>
      <path class="cls-1" d="M276.72,274.03v-64.25c0-5.98,7.04-8.61,8.01,3.85.77,9.83.83,47.06-2.62,54.93-1,2.29-2.81,4.9-5.39,5.47Z"/>
      <path class="cls-1" d="M247.07,204.83h5.92c2.16,2.08,2.73,54.52,1.27,60-.96,3.57-2.48,7.89-7.18,7.22v-67.22Z"/>
      <polygon class="cls-1" points="207.37 204.96 211.46 241.42 211.5 272.03 203.6 274.03 201.61 204.82 207.37 204.96"/>
      <path class="cls-1" d="M217.43,272.05c2.67-18.82-3.52-40.37-2.08-58.42.28-3.53-.58-6.38,3.05-8.76,2.44,2.05,4.24,3.58,4.89,6.93,1.08,5.6.98,50.25-.35,54.89-.59,2.06-3.31,4.8-5.5,5.35Z"/>
      <path class="cls-1" d="M268.81,206.81v46.46c0,5.53,2.74,16.88-5.92,16.79l-1.97-63.26h7.9Z"/>
      <circle class="cls-1" cx="321.92" cy="262.16" r="7.87"/>
      <path class="cls-1" d="M191.44,269.79c-10.98,6.88-16.84-12.69-6.26-15.32,9.06-2.26,10.27,12.81,6.26,15.32Z"/>
    </g>
  </g>
</svg>