<?xml version="1.0" encoding="UTF-8"?>
<svg id="Capa_1" data-name="Capa 1" xmlns="http://www.w3.org/2000/svg" viewBox="0 0 335.33 308.67">
  <defs>
    <style>
      .cls-1 {
        fill: #fff;
      }
    </style>
  </defs>
  <g id="_5FFyI8" data-name="5FFyI8">
    <g>
      <path class="cls-1" d="M43.38,271.2c2.12-8.61,17.45-59.61,23.49-60.44,3.06-.42,7.07.06,11.77,1.48l-17.38,55.79,52.96-15.75c48.12,26.73,105.41,17.47,140.84-22.44,35.48-39.98,37.79-99.41,4.65-142.12-32.33-41.66-90.47-56.02-138.82-31.01-45.6,23.58-72.37,77.55-56.56,129.23,2.95,9.63,1.81,16.07-8.33,21.91-25.77-51.43-8.99-115.52,36-151.56,47.01-37.64,111.51-36.82,159.8-.21,5.24,3.97,7.67,5.9,12.17,10.91,42.03,46.69,47.44,114.47,10.11,164.86-36.47,49.22-104.14,66.64-161.22,37.52l-52.82,16.36c-8.11,2.51-18.77-5.91-16.65-14.54Z"/>
      <path class="cls-1" d="M175.19,190.5c-61.13-44.47-36.33-48.55-33.28-58.14,2.65-8.35-4.96-18.19-9.68-26.31-13.54,6.49-17.73,21.09-12.33,33.85,16.48,38.93,75.88,89.47,107.09,57.54,4.86.63,12.17,8.21,8.57,12.67-30.4,37.74-105.72-7.51-129.94-62.87-8.78-20.07-2.68-43.32,15.67-54.07,7.16-4.2,18.09-4.75,23.21,2.01,8.86,11.69,23.53,38.62,7.08,52.74,9.73,10.28,21.96,24.22,35.46,29.39,6.15-3.42,10.44-14.91,18.34-13.64,4.43.71,37.28,11.72,36.47,22.19-1.36,17.53-26.33-6.04-36.03-3.16-5.5,1.64-8.23,10.83-12.88,11.66-6.35,1.13-12.11.24-17.74-3.85Z"/>
    </g>
  </g>
</svg>