<?xml version="1.0" encoding="UTF-8"?>
<svg id="Capa_1" data-name="Capa 1" xmlns="http://www.w3.org/2000/svg" viewBox="0 0 500 500">
  <defs>
    <style>
      .cls-1 {
        fill: #566045;
      }
    </style>
  </defs>
  <g>
    <g>
      <path class="cls-1" d="M270.51,221.6l2.12-8.41c4.05,2.9,5.41,5.82,6.19,10.68,4.3,26.72,1.02,68.43.34,96.71l7.92,90.25c-11.13,2-24.56,9.62-31.19-3.92-18.8-38.44-4.87-98.78-2.26-141.1,1.08-17.45-.68-35.19.07-52.62l16.8,8.4ZM278.96,407.07l-4.11-120.33-8.47-52.46-4.24,172.8h16.82Z"/>
      <path class="cls-1" d="M294.55,199.31c-1.95,2.44-17.13,11.86-19.79,9.61,31.44-26.13,25.24-83.74-2.98-108.88-10.99-3.3-23.28,1.58-30.72,9.9l8.62,4.42c-8.97,26.16-9.66,47.64-.22,73.5l-14.75-8.38c-6.39,13.09,17.53,19.61,23.18,29.44-52.22-6.13-48.52-104.25-4.39-116.17,46.15-12.46,58.6,84.68,41.05,106.56Z"/>
    </g>
    <path class="cls-1" d="M193.64,203.7c-4.49,4.22-14.7,2.68-16.02,8.03l8.66,203.76-38.12-7.04,8.53-188.88c-1.71-14.59-24.62-17.01-28.56-30.45-2.72-9.27-2.72-76.44-.76-87.5,2.11-11.94,17.7-16.99,26.93-14.11,7.44,2.32,3.67,12.72,10.81,11.86l6.4-12.55,10.49,25.18c-.04-7.98,6.35-40.21,16.47-22.72,8.55,14.79,8.26,102.1-4.83,114.41ZM139.9,154.18v-59c-5.54-1.11-6.77,7.8-7.35,11.56-6.29,40.78,15.07,78.26,28.47,114.87,10.84-14.25,28.68-22.48,34.04-40.02,3.74-12.21,3.5-53.55,1.61-67.27-.72-5.25.62-19.63-6.15-19.12l-.03,54.73-14.22.11-4.76-8.56c-3.78,9.07-3.34,9.8-14.73,8.5-1.75-1.68,1.09-39.95-.01-48.56-.98-7.69,1.43-6.81-8.44-6.25v59h-8.43ZM177.85,407.07c-4.46-32.93-2.87-66.01-4.23-99.1-.21-5.12,3.18-15.67-4.17-14.69-.01,37.33-1.14,78.82-12.68,113.73l21.09.06Z"/>
  </g>
  <path class="cls-1" d="M359.18,79.86c.07.21-1.27,2.16-1.01,4.29,7.64,61.03,15.06,122.62,15.41,184.19.21,36.32,1.82,94.97-2.81,129.29-1.24,9.2-2.82,24.74-13.42,26.33-18.13,2.71-19.47-13.64-21.01-27.73-2.51-22.92.62-55.14,1.87-78.8,1.46-27.57,6.49-56.17,4.78-83.34-17.83-.99-23.45-8.6-23.67-25.88-.2-15.31,18.29-107.91,24.59-122.23,2.96-6.73,12.3-15.57,15.27-6.11ZM348.43,113.9l-13.63,57.97c-4.08,23.01-15.74,50.99,16.92,57.37l-3.3-115.34ZM353.3,417.25c7.36.41,7.15-31.81,7.1-37.29-.23-27.58-3.58-58.48-5.2-86.48-.27-4.67-.2-11.47-2.4-15.49-1.94,23.43-4.74,47.13-5.98,70.61-.72,13.56-4.15,51.13,1.14,61.67,1.37,2.73,3.08,4.96,5.34,6.98Z"/>
</svg>