<?xml version="1.0" encoding="UTF-8"?>
<svg id="Capa_1" data-name="Capa 1" xmlns="http://www.w3.org/2000/svg" viewBox="0 0 500 500">
  <defs>
    <style>
      .cls-1 {
        fill: #566045;
      }
    </style>
  </defs>
  <path class="cls-1" d="M329.23,138.09c.25,2.26,1.63,6.67-2.04,5.86-15.98-3.02-32.5-11.12-48.5-13.5-29.51-4.39-77.29-3.85-105.3,6.32-12.75,4.63-49.03,22.58-32.92,39.69,8.85,9.4,23.13-4.44,32.92-7.95,40.66-14.59,95.17-11.88,136,.77,20.89,19.24-16.63,3.05-25.24,1.05-31.33-7.28-94-4.06-122.75,11.55-1.51.82-5.5,3.86-3.55,5.92,1.72,1.82,21.44,8.63,25.23,9.54,39.15,9.36,106.87,10.25,139.92-15.11,4.57-3.51,11.06-12.1,10.98-17.9-.07-5.25-5.77-19.85,3.72-18.94,13.98,1.33,9.6,37.52,6.87,46.9,7.37,2,10.85-3.77,17.34-4.57,22.36-2.73,43.54,4.64,48.49,28.66,3.83,18.59-13.94,40.35-28.14,50.64-21.44,15.55-56.22,17.86-75.5,33.33-23.66,18.97-24.8,35.77-62.7,32.51-4.83-.42-9.98-.71-8.33-6.03,3.23-.21,6.59.37,9.82-.02,20.17-2.43,31.99-3.44,44.34-20.65,11.96-16.66,34.56-58.3,40.35-77.55,1.19-3.95,6.85-28.45,5.25-30.26-10.75,3.83-21.67,11.73-32.63,14.97-40.91,12.09-106.52,8.14-143.9-10.32-2.76-1.36-18.13-9.4-19.18-9.2-1.9.37-2.24,3.01-2.03,4.91.79,7.09,11.67,37.43,15.01,45.27,7.33,17.22,27.91,48.02,42.14,60.94,4.19,3.81,28.09,19.64,28.55,21.37.61,2.3.05,4.14-2.32,4.88-6.37,2-25.21-9.94-30.62-14.3-13.91-11.23-47.16-55.34-53.78-71.68-12.46-30.74-23.86-84.96,8.44-106.43,33.78-22.45,120.99-25.07,158.89-12.52,7.64,2.53,16.76,10.01,25.18,11.85ZM320.38,275.42c2.66.09,5.32.22,7.95-.35,7.65-1.65,20.56-5.53,28.26-8.02,18.09-5.83,48.34-26.29,46.6-47.88-2.47-30.8-54.78-32.83-61.28-10.64-4.39,14.99,11.54.13,16.39-1.74,17.49-6.76,33.82,6.52,28.27,25.24-2.65,8.92-30.75,24.28-39.49,28.52-1.8.87-31.55,10.7-26.69,14.86ZM377.33,232.63c6.77-7.99,3.05-19.57-7.8-20.73-23.13-2.46-37.66,22.33-38.57,42.36,3.16.47,5.69-.24,8.65-1.17,5.07-1.61,34.96-17.21,37.72-20.46Z"/>
  <path class="cls-1" d="M89.1,305.66c-.7-20.27,10.86-36.66,26.69-48.13,2.14-1.55,16.54-9.57,17.85-9.31,5.98,1.2-.45,15.88-3.69,18.96-1.91,1.82-4.78,1.84-5.59,2.69-20.8,21.82-22.57,44.21.08,65.42,42.42,39.73,137.64,41.68,189.53,22.16,26.26-9.88,60.34-28.84,56.19-61.55-1.04-8.23-7.21-10.48,4.71-18.15,11.93-7.67,15.04,14.47,15.13,22.57.34,31.7-37.18,56.14-63.59,65.78-11.11,4.05-29.05,8.51-40.81,10.58-.94.17-2.07-.15-3.02,0-15.67,2.44-34.03,4.53-49.88,4.53-7.64,0-16.54-.76-24.18-1.51-3.31-.32-8.52-.99-12.09-1.51-5.98-.87-14.01-1.82-19.65-3.02-4.5-.96-13.31-3.8-18.11-5.32-10.82-3.44-21-9.29-31.77-12.82-2.07-1.96-4.18-2.95-6.05-4.53-5.15-4.38-12.58-10.87-18.14-12.09-.23-2.29-.64-3.8-3.02-4.53-1.68-7.89-7.14-10.61-9.07-18.14-.77-3.02-1.4-8.84-1.51-12.09Z"/>
  <text/>
</svg>