<?xml version="1.0" encoding="UTF-8"?>
<svg id="Capa_1" data-name="Capa 1" xmlns="http://www.w3.org/2000/svg" viewBox="0 0 500 500">
  <defs>
    <style>
      .cls-1 {
        fill: #575941;
      }
    </style>
  </defs>
  <path class="cls-1" d="M280.91,135.14c.52-.42.31-.42.65-.77.31-.32.95-.41,1.36-.93.56-.72.57-1.42,1.51-2.11,5.42-3.97,9.32-1.15,15.07-1.72,1.64-.16,2.47-.92,3.67-1.29,1.25-.38,2.73-.26,3.94-.44.58-.09,1.26-.53,1.75-.55.15,0,2.57.56,2.95.65.49.12,2.79,1.74,3.43,2.1.55.31,1.9,1.17,2.29,1.33,1.4.58,2.44-.21,3.61,1.16,1.46,1.71,1.48,1.19,3.04,2.3,1.68,1.18,5.18,4.99,6.49,6.67,1.99,2.57,1.93,5.11,2.93,7.95.1.28.28.81.7.73-.01.12.02.26,0,.38-.02.11-.56.45.19.38.02.18-.03.4,0,.57-.35.3-.24.45.19.38.02.06-.02.13,0,.19.37,1.22.79,1.51.96,2.96.04.36-.23.77.38.66-.01.13.01.26,0,.38,0,.02-.15-.03-.18.28-.05.5-.18,1.22.38,1.05,0,.38,0,.76,0,1.14-.02.69,0,1.22,0,1.91,0,.8-.17,5.67,0,5.91.23.83-.51.43-.58.69-.3,1.04-.12,2.77-.41,3.75-.11.39-.72.66-.92.99-.57.91-1.59,3.44-1.95,4.53-.16.49-.53,2.52-.61,2.64-.37.55-2.7-.32-3.73.66-1.7,1.61.02,2.54-.2,3.99-.02.14-1.04,2.53-1.13,2.69-.4.67-1.78,1.19-2.47,1.73-.83.64-2.21,2.13-3,2.54-.52.27-1.33.21-1.66.4-.24.14-.15.59-.4.79-.05.04-.95.53-1.01.55-.29.06-.86-.09-.99.04-.04.04-.12.54-.55.91-.83.71-1.83,1.05-2.52,1.73-.2.2-.33.26-.57.38-.93.48-2.43.43-3.53.58-.36.05-.77-.24-.67.37-.19,0-.38,0-.57,0-.19-.31-.96-.31-1.14,0-.19,0-.38,0-.57,0-.96.03-2.02.19-2.86.19-.57,0-1.15.01-1.72,0-.79-.02-2.01.01-2.81-.34-.33-.15-.57-.62-.91-.62-.78,0-1.14,1.06-2.65.16-3.05-1.81-3.24-1.23-6.42-1.97-.88-.21-1.36-.58-2.28-.67-.47-.05-1.03,0-1.53,0-.43-.34-1.45-.8-1.73-1.23-.34-.53.04-1.44-.49-1.61-1.45-.48-1.89,2.48-4.16.74-1.13-.87-2.06-2.05-2.52-3.39-.3-.87-.15-2.64-1.39-2.9-.25-.39-.31-.43-.57-.76.12-.86-.7-1.19-1.04-1.73-.29-.47-.72-1.79-1.06-1.9-.15-.05-.42.05-.57,0,.13-.46-.38-.41-.58-.66-.32-.4-.34-1.07-.95-1.06-.06-.15-.01-.65-.19-.76.06-.36-.02-.45-.38-.38-.01-.06.01-.13,0-.19-.1-.39-.08-.88-.57-.76-.05-.09-.23-.27-.38-.57-.22-.43-.34-1.39-.95-1.34-.02-.18.01-.39,0-.57-.2-2.98-.69-5.76-.76-8.88-.04-1.82.02-3.5-.02-5.32-.1-5.03.23-8.48,2.79-12.87.45-.77,1.1-1,1.61-1.63,1.13-1.42.67-3.04,2.69-4.17.69-.39,1.37-.71,2.02-1.08.96-.54,1.53-.56,2.23-1.72.3-.5.56-1.82.78-2.08.24-.28.4-.17.86-.77.16-.21.18-.22.38-.38ZM325.54,166.22c.67-.03.28-.8,1.14-1.06.84-.26,2.44.35,1.89-1.3-.24-.73-1.27.29-1.86-.62-.57-.88-.26-2.52-.75-3.64-.43-1-1.69-1.96-2.17-3.17-.23-.58-.23-1.44-.44-1.84-.16-.3-.63-.4-.85-.67-.58-.71-2.02-2.45-2.32-3.21-.71-1.74-.58-3.24-1.96-4.9-1.03-1.25-1.22-.75-2.24-1.19-3.89-1.68-7.67-3.42-11.63-4.92-.13-.05-.14-.33-.28-.36-.5-.12-2.99-.06-3.44.14-.37.16-.55.59-.96.76-.9.37-1.5-.03-2.22.05-.53.06-.82.52-1.25.67-.69.24-1.7.18-2.45.41-.72.22-1.22.88-1.7.98-.72.15-1.66-.45-2.03-.34-.27.09-.35.68-.58.95-.31.37-.83.45-1.16.75-.37.33-1.52,1.4-1.67,1.77-.7,1.71.58,2.76,2.24,2.43.66-.13.82-1.12,1.58-1.47.35-.16,2.13-.77,2.45-.8,1.18-.12,1.6.6,2.79-.39.23-.19.3-.52.51-.68.85-.68,1.63-.34,2.55-.51.84-.16,1.66-.81,2.53-.73.37.03,1.91.87,2.09,1.17.12.2.26.82.28,1.07.02.21.03,1.71.01,1.86-.04.3-.69,1.23-.96,1.35-.61.28-1.6-.03-2.41.26-.89.32-3.59,1.43-4.44,1.86-.84.43-1.73,1.56-2.51,2.07-.57.38-1.62.63-2.01,1.05-.43.47-.32,1.06-.57,1.53-.17.32-.63.6-.88,1.02-.68,1.14-.64,3.09-.51,4.41.24,2.43,1.18,2.92.07,5.64-.81,1.99-1.81,1.28-3.53,1.72-.49-.05-1.03.04-1.53,0l-1.52-1.06c-2.08-.71-2.09,2.45-1.9,3.8.17,1.19,1.11,1.56,1.78,2.41.52.66.86,1.62,1.24,2.19.29.43.93.45,1.07.65.2.3.05,1.27.14,1.77.4,2.16,1.17,2.1,2.72,3.2.36.25.72.88,1.06,1.04.6.29,1.82.35,2.43.61.32.14.32.55.62.72.39.23,3.86,1.17,4.34,1.21.94.07,1.85-.29,2.95.08.84.29,1.19,1.49,3.08,1.46.79-.01,2.01-.11,2.88-.15,1.11-.06,4.64-1.2,5.56-1.81,1.36-.9,3-3.23,4.35-4.32.37-.3,1.14-.27,1.34-.57.4-.59.99-2.37,1.3-2.8.34-.48,1.91-1.46,2.53-2.15,1.36-1.52,2.34-3.64,3.51-5.26.47-.65,1.93-.87,1.93-1.91,0-.26-.21-.44-.21-.47-.01-.25,0-.51,0-.76ZM281.62,154.81c-1.09.32-2.35,3.73.05,2.91,1.51-.52,1.66-3.41-.05-2.91ZM273.42,156.15c-1.48.42-.73,4.79,1.38,3.1,1.76-1.4-.03-3.49-1.38-3.1ZM271.32,165.87c-.13.02-.3.26-.47.3-.37.08-.79,0-1.11.23-.5.36-.6,2.15-.36,2.69.1.23,1.1.96,1.34.96.51,0,.37-.6.67-.86.18-.16.58-.14.77-.37.68-.84-.06-3.08-.84-2.94Z"/>
  <path class="cls-1" d="M424.14,225.73c-.05.39-.07.66.38.57.23.26.44.61.57.76.03,1.17-.04,2.36,0,3.54.01.37-.19.77.38.66,0,.32,0,.64,0,.95,0,1.54.19,3.54,0,5.15-.11.95-.67,1.35-1.34,1.91-.33.28-1.39,1.01-1.78,1.18-.82.35-1.86.24-2.41.64-.54.39-.53,1.09-.87,1.61-.25.39-1.86,2.1-2.27,2.5-1.46,1.4-3.77,1.98-4.87,3.42-.05.07-.15.13-.19.19l-3.62,1.06c-.52.35-.48,1.53-.85,1.82-.44.35-1.18-.08-1.65.64-.22.34-.21.77-.4,1.13-.3.58-.7,1.06-.93,1.64-.06.02-.14-.02-.19,0-1.14.56-1.11,1.12-1.9,1.82-.6.53-.59.12-1.15,1.04-.48.27-.94.69-1.37.83-.89.3-2.29.27-3.16.65-.66.29-.84,1.14-1.59,1.46-1.2.51-3.01.76-4.12,1.41-.64.37-.98,1.05-1.7,1.35-1.23.53-2.96.84-4.22,1.51-.83.44-1.98,1.75-2.74,2.03-.53.2-1.1.12-1.71.39-.97.43-2.51,1.56-3.62,2.1-.63.31-1.39.14-1.8.87-.14.24-.07.69-.29.85-.45.33-1.71-.15-1.74.94-.05,1.36.52,1.52-.26,3.16-.92,1.92-2.24,1.54-3.07,2.46-.39.44-.32,1.08-.51,1.3-.21.26-1.25.19-1.74.45-.58.3-.86,1.24-1.35,1.51-.47.27-.92.13-1.39.32-.42.17-.7.77-1,.9-.51.23-1.15,0-1.73.18-.49.16-1.13.96-1.65,1.21-.57.27-1.16.28-1.83.65-.97.53-3.8,3.4-4.13,4.35-1.89.79-2.78,1.85-4.59,2.75-.31.15-.73.11-1.08.26-1.31.57-2.57,2.82-3.29,4.05-.14.23-.32.46-.38.57-.51.02-.68.52-1.09.72-1.09.54-1.68.8-2.78,1.41-.4.22-2.11.88-2.19.96-.11.1-.01.29-.04.34-.56,1.01-.72.39-.95.57-.45,0-.66-.13-.57.38-.07.02-.26.14-.38.19-1.46.67-1.91,3.35-4.09,3.06-1.28-.18-.69-1.49-.7-2.18,0-.47-.3-.91-.36-1.26-.02-.12.02-.27,0-.38.4.11.72-.62.76-.87.24-1.58-2.03-.72-2.48.49-.02.06.02.14,0,.19-.59.13-1.55,1.06-1.55,1.62,0,1.38,2.35,1.58,2.6,2,.18.31.04.82.13,1.2.06.27.28.5.33.82.28,1.83-1.36,4.87-3.23,5.34-.63.16-1.2-.19-1.53-.02-.58.3-.99,2.11-1.42,2.41-.51.36-1.08-.03-1.65.44-.84.7.15,1.97-.21,2.37-.4.46-4.12.97-5,1.19-.8.2-3.39.78-3.92,1.04-.61.3-.69,1.38-1.1,1.62-.63.38-1.56,0-2.3.32-.24.1-2.7,2.14-2.81,2.34-.19.34-.24.66.28.57-.08.63-.03,1.62,0,2.29.1.03.26-.03.38,0,.05.4.02.43-.38.38-.01-.13,0-.25,0-.38-1.89-.57-1.88.52-3.2.73-.59.09-1-.22-1.46-.16-.38.05-.66.48-1.17.57-.93.15-2.36-.19-3.19.05-.52.15-.72.9-1.03,1.11-.62.42-1.45.24-2.02.41-.35.11-.49.58-.84.69-.54.16-1.27-.05-1.86.05-.57.1-1.59.83-2.39,1.05-.86.24-2.24.29-3.11.51-.62.16-1.19,1.14-1.81,1.26-.68.13-1.28-.45-1.89.29-.12.14-.11.45-.25.6-1.07,1.22-4.13.84-5.17,2.47-.19.29-.17.84-.36.98-.22.15-1.5.13-1.92.47.04.5.51.63.36,1.19-.08.31-1.18,1.1-1.49,1.2-1.87.55-4.4-.18-6.01.1-.59.1-1.19.69-1.78.89-1.02.36-3.6.41-4.31,1-.16.14-.11.41-.2.5-1.34,1.3-3.06,1.49-4.2,3.33-.21.33-.24,1.07-.49,1.23-.36.23-2.1.54-2.48.76-.23.13-.29.62-.57.76-.66.33-2.83-.04-3.73.08-.42.06-.66.34-.96.38-2.06.25-4.12.24-6.19.29-.77.26-.42.8-.74,1.36-.76,1.32-4.33,3.11-5.83,3.33-4.06.59-8.7.38-12.75.79-1.98.2-3.86,1.27-6.13,1.31-1.55.03-2.91-.55-4.21-.75-1.46-.23-3.41.2-5.13-.21-.44-.11-.78-.57-1.16-.56s-.69.64-1.34.75c-.99.16-1.81-.2-2.65-.19-.45,0-2.19.28-2.67.4-.53.13-2.24,2.06-2.9,2.44-1.07.62-2.38.07-2.58,1.71-1.22.47-2.58.52-3.81.86-.53.14-.93.62-1.57.71-1.35.18-3.34-.68-4.96-.78-1.34-.08-4.78-.33-5.93-.19-.56.07-.95.44-1.52.4-1.1-.07-1.08-1.15-2.25-.55-1.83.95-2.95,2.14-5.38,1.67-.45-.09-.53-.53-1.14-.59-.94-.09-1.42.61-2.11.6-.52,0-.83-.51-1.52-.59-1.19-.15-2.32.21-3.44.21-1.58,0-4.53-.32-6.09-.6-.6-.11-1.33-.83-1.97-.91-.42-.05-.74.17-1.08.14-.83-.07-3.19-.23-3.68-.81-.12-.14-.11-.46-.25-.6-.25-.27-.56-.36-.71-.53-.32-.35-.11-.92-.92-.92-.41,0-.27.44-.6.56-1.24.47-4.24.28-5.69.42-3.19.31-6.87,1.17-10.07.53-.75-.15-1.34-.74-1.81-.86-3.86-1-9.41-.51-13.5-.43-1.31.02-2.89.55-4.19,0-.61-.25-.59-.78-1.06-1.04-.41-.22-1.07-.16-1.43-.48-.29-.26-.28-.77-.54-.98s-.72-.14-.99-.35-.26-.7-.55-.98c-.25-.25-.82-.32-.96-.56-.22-.38.06-1.1-.61-1.3-.49-.14-2.97-.1-3.57-.02-.7.09-1.62.71-2.13.75-.49.03-1.12-.47-1.72-.55-1.35-.18-1,.19-2.18-.48-1.16-.67-2.84-.6-4-.98-.7-.23-.49-.79-1.01-1.08-.58-.32-1.6-.19-2.05-.43-.4-.21-.47-1.32-1.33-1.55-.28-.07-.51.12-.65.1-.13-.02-.13-.3-.27-.35-1.16-.43-2.06-.39-3.24-.73-.89-.25-1.18.22-1.36-1.12-.15-1.12.27-2.12.96-3.01,1.02-1.31,1.94-1.13,3.37-1.59,1.34-.43,3-.82,4.23-1.3.94-.37,1.98-1.26,2.97-1.41.37-.06,3.53-.19,3.7-.11.21.09.45.54.82.72,1.7.83,1.41.5,2.91,1.86.24.22.93.52,1,.63.15.24-.05.77.36.89l4.34-.37c.87.65,2.41.59,3.21.96.46.21,1.37,2.05,2,2.24.79.24,1.52-.22,2.25-.16.86.06,2.17.61,3.23.59.73-.01,1.23-.48,1.74-.57.65-.11,1.62-.07,2.48-.18,1.41-.18,1,.24,1.55.57.59.35,1.71.77,2.26,1.13.39.26.58.85,1.14.96.49.09,2.3.21,2.86.21.84,0,4.4-.67,5.11-1.01.66-.32.77-1.18,1.46-1.4.3-.1,2.96-.32,3.35-.29,1.18.1,1.37.93,2.01,1.24.57.28,1.56.2,2.2.47.44.19.68.65.98.74,2.14.63,5.28.35,7.74,1.03.76.21,1.29,1.26,1.99,1.44.79.2,1.79-.11,2.58.09,1.49.38,2.35,1.5,4.46,1.65,2.47.18,4.03-.33,6.28-.73,1.07-.19,3.88.01,4.55-.6.44-.4.53-1.47,1.19-1.67,1.62.02,3.54-.68,5.11-.63,1.16.04,4.68,1.27,5.86,1.78.34.15.5.51.86.67.55.24,1.26.15,1.83.45.43.23.81.96,1.21,1.08.5.15,2.77.11,3.21-.14.52-.3,1.27-1.45,1.72-1.91.22-.23.6-.23.86-.48.56-.55,1.06-2.7,1.84-2.93,1.8-.52,4.25.62,6.06.73,1.44.09,2.81-.33,4.2-.4,1.51-.07,3.35.19,4.78.01.36-.04,4.37-1.59,4.85-1.83.3-.15.54-.64.89-.83.69-.36,6.47-.31,7.61-.22.53.05,1.1.43,1.52.39.54-.06.98-.98,1.45-1.23,1.08-.56,2.25-.49,3.48-1.48.55-.44.72-.89,1.17-1.31,1.82-1.71,4.51-1.55,6.85-1.73.25-.02,1.24-.05,1.07-.55.19-.01.39.02.57,0,.19.31.73.22,1.04.19,1.42-.13,3.54-.64,4.81-1.3,1.41-.73,1.2-.88,2.93-1.46,1.02-.35.85-.98,1.33-1.34.38-.29.97-.26,1.41-.5.45-.25.71-.85,1.26-1.03,3.97-1.34,8.2-1.27,12.21-1.42.57-.02,1.15.03,1.72,0,.08.3.7.29.76,0,.19-.01.38.01.57,0,1.74-.11,1.42-.79,2.3-1.61.94-.87,2.75-.9,3.61-2.01.22-.1.49-.25.76-.38h2.96c1.84-.21.67-1.63,1.07-2.26.08-.13,2.42-.92,2.9-1.2.58-.33,1.46-1.06,1.84-1.5.62-.73.58-.58,1.34-.95l.11.18c.42-.04.61-.24.85-.56.08-.11.11-.27.19-.38.45-.32,1.5-.5,1.83-.75.26-.19.19-.45.27-.58.95-1.56,1.71-1.13,3.08-1.97.96-.59,1.27-1.53,1.97-2.03,1.51-1.08,5.95-2.4,7.78-2.25.62.05,1.33.58,2.12.52.65-.05,3.46-1.59,3.83-2.1.82-1.15,1.61-3.61,2.1-4.95.27-.75.78-.52,1.3-.8,1.63-.89,1.53-.54,3.05-.95,1.88-.52,3.32-1.01,5.29-1.48,1.58-.38,1.96-.58,2.48-2.1.03-.1-.03-.28,0-.38.57-.04.63-.31.76-.76.02-.06-.02-.13,0-.19.7.16.47-1.02.58-1.14.1-.1,1.22.05,1.52,0,.23.22-1.27,2.33.57,2.67.13.02.44.02.57,0,.48-.08.5-.09.57-.57.04-.26.04-.89,0-1.14-.12-.73-.8-.61-.93-1.09-.05-.18.12-1.25.17-1.58.03-.26-.1-.68.18-.87.39-.26,3.62-.52,4.4-.75.55-.16,1.08-.73,1.52-1.05,1.72.52,2.09-1.82,2.29-3.05.05-.06.13-.14.19-.19.72-.05,2.12-1.91,2.57-1.91.84,0,.6,1.15.67,1.63.05.32.18.27.18.28.05.36-.05.79,0,1.14.14,1.03.12,2.98,1.6,2.86.15-.01.26-.18.31-.19.19-.04.7.05.76,0,.41.05.43.02.38-.38.13-.05.25-.13.38-.19.09-.04.26.09.4-.11.78-1.17-.12-3.12-.78-4.19-.16-.25-.17-.56-.57-.47-.28-.73-.74-2.72-1.14-3.24v-.95c.07-.09.05-.37.27-.59.16-.16.47-.15.49-.17.39.05.43.01.38-.38.85-.31.87-.67,1.14-1.34.55.03.57-.91.76-1.34.43-.61,3.36-3.57,3.86-3.76.47-.17,1.11-.08,1.7-.31.5-.19.91-.75,1.25-.85.76-.23,1.16-.06,2.05-.8,1.55-1.29,3.66-2.86,5.36-3.98,2.7-1.78,5.93-2.62,8.63-4.34,1.69-1.07,2.83-2.65,4.65-3.88.24-.16.39-.62.83-.93,1.45-1.03,4.79-.72,6.68-1.71.56-.29.84-.87,1.29-1.19.58-.4,1.28-.57,1.91-1.14.87-.79,2.5-2.87,3.46-3.41.8-.45,1.66-.25,2.37-.49.46-.15.47-.55.69-.69.34-.21.95-.16,1.27-.36.26-.16.47-1.66.72-2.19.19-.4,1.63-3,1.79-3.17.83-.88,2.02-1.18,3.2-.91.46.1.86.63,1.42.68,1.06.11,1.28-.71,1.85-1.3,1.04-1.09,1.11-1.46,1.93-2.64.6-.86,1.87-2.36,2.89-2.64,1.32-.36,3.01-1.12,4-1.34.63-.15,1.32.14,1.88-.41.59-.58.73-2.53,1.19-3.39.91-1.68,3.54-1.51,5.19-1.87,1.95-.42,3.49-1.34,4.53-3.1.88-1.49.31-1.93.43-3.17.17-1.7,1.37-1.2,2.38-1.24.7-.03,1.33-.36,2-.02ZM420.93,233.76c-.75.47.25,2.16,1.32,1.41.8-.56-.25-2.09-1.32-1.41ZM347.23,280.69c-1.45.32-2,2.74.29,2.2,2.05-.49,1.46-2.59-.29-2.2ZM305.08,315.58c-1.4.27-1.2,2.15.48,1.85s.61-2.06-.48-1.85Z"/>
  <path class="cls-1" d="M406.4,272.07c.03.57,1.07,1.02,1.53,1.34.08.06.14.16.19.19-.01.39.19.59.57.57.06.15.14.41.19.57.15.5,0,1.5.57,1.34.03.41.02.91,0,1.34-.47-.24-.49.98-.51,1.47,0,.15.13.23.13.24,0,.19.02.39,0,.57-.41-.05-.43-.02-.38.38-.03.03.02.27,0,.38-.39-.05-.44-.01-.38.38-.18.15-1.21,1.21-1.53,1.53-.68.24-2.21.16-2.29.95-.06.01-.13-.02-.19,0-3.02.77-4.72,2.49-7.19,3.39-.86.31-1.73.25-2.4.46-.18.06-1.29.91-1.72,1.14-.75.39-2.53.97-3.07,1.69-.29.39-.15,1.05-.42,1.34-.71.75-3.83,1.11-4.9,1.73-.95.55-1.97,2.43-2.69,3.03-.37.31-1.15.4-1.61.68-.52.32-1.15,1.06-1.6,1.26-.58.26-1.38.19-1.99.49-.46.22-.78.85-1.14.96-1.46.43-2.22-.31-4.12.84-2.09,1.26-1.18,1.98-2.07,3.46-.24.4-.84.53-1.01.9s-.06.78-.19,1.15c-.77,2.18-3.71,2.11-5.58,2.62l-1.76,1.57c-.13.01-.26-.01-.38,0-.01,0-.11-.15-.25-.14-.67.07-1.74.92-2.04,1.48-.11.2-.37.9-.41.92-.21.13-.8,0-1.11.03-.45.06-1.19.1-1.53.48-.3.34-.09.81-.58,1.14-.53.36-1.46.19-1.72.38-.23.16-.1.6-.24.81-.17.26-.87.65-1.06.94-.28.43-.35,1.06-.7,1.58-.19.27-2.32,2.76-2.49,2.85-.46.24-.94.17-1.35.36-.48.22-1.3.92-1.72.97-.42.05-.59-.3-.92-.36-1.43-.23-3.35,2.8-4.48,3.52-.46.3-.94.31-1.37.53-.95.48-1.94,2.29-3.13,2.98-.9.52-2.65.78-3.64,1.13-.82.29-1.16,1.12-1.85,1.39-.8.32-2.03-.02-2.51.35-.36.27-.99,2.36-.27,2.69-.06.14.09.52-.09.76-.23.32-1.65.51-2.01.86-.54.53-1.28,1.84-2.01,2.38-.58.43-1.34.48-1.88.79-.63.36-2.5,2.3-3.02,2.52-.76.32-2.19.14-2.82.41-.35.15-.62.86-.95,1.15-1.22,1.11-2.72,1.43-3.92,2.38-1.39,1.1-2.3,2.35-4.01,3.63-.17.13-.21.44-.33.52-.35.23-2.08.32-2.53.25-.72-.1-1.41-.29-2.26-.4-.99-.13-1.29-.75-2.11.59-.36.59-.17,1.07-.79,1.49-.1.06-2.01.9-2.12.93-.57.15-1.13-.06-1.76.15-.88.29-1.25,1.55-1.96,1.85-.56.23-1.1.08-1.67.23-.76.2-1.45,1.2-1.75,1.31-.51.19-1.01.07-1.56.34-.87.44-.72,1.19-1.16,1.7-.6.68-1.47.4-1.91.76-.07.06-1.15,1.3-1.19,1.38-.18.45.05,1.21-.53,1.66-.29.23-.62.16-.84.3-.23.14-.76,1.01-1.15,1.34-1.45,1.23-3.32.68-5.06.85-2.47.24-4.2,1.92-6.48,2.68-4.09,1.36-9.65.48-13.31,1.95-.4.16-.57.58-.96.76-.92.43-2.11.39-2.97.65-.53.16-.81.67-1.31.79-2.04.47-4.14-.61-6.05-.33-.34.05-.56.33-1.15.39-1.02.09-.77-.36-1.14-.41-.96-.13-1.22.31-1.91.41-1.26.18-3.62-.55-4.49.09-.44.32-.49.91-1.1,1.19-1.61.73-3.91.17-5.43-.57-1.01-.49-1.82-2.3-2.16-3.37-.14-.45,0-.87-.1-1.23-.21-.85-1.24-2.69-.1-3.36.11-.06,1.96-.57,2.1-.57.93,0,3.43.41,4.12,1.05.38.35.45.86.76,1.15s1.04.45,1.33.96c1.64.02,6.67.18,7.74-1.04.41-.47.06-.55.08-.58.06-.13.13-.26.19-.38l3.23-2.78c1.41-.22,3.05-.11,4.44-.33,2.74-.42,7.3-2.74,9.19-4.73.62-.65.31-1.04,1.59-1.47,2.33-.77,2.85.93,4.64.44.32-.09.65-.45.75-.48,1.55-.42,3.29.4,3.25-1.82-.01-.85-.03-1.55-.01-2.38.19-.01.39.02.57,0,.96-.1.71-.36.95-1.14.33.14.59-.15.76-.19.46-.1,1.06-.11,1.53-.19.76-.13,1.51-.35,2.29-.38,1.36-.06,1.03-.19,2.01-.37,1.4-.26,2.72.29,4.23-.54,2.06-1.14,2.32-3.6,3.68-4.81.99-.88,2.32-.58,3.62-.57,1.53.01,2.14.5,3.43-.76.39.01.59-.19.57-.57.66-.53.48-.49,1.34-.76.36-.11,1.08.04.95-.57.63-.17,1.35-.16,1.91-.57.36.06.45-.02.38-.38.13-.08.29-.13.38-.19l.19-.19c.16-.1.31-.14.38-.19.6-.39,1.51-1.22,2.1-1.43s1.36-.16,1.91-.38c.45-.17.72-.65,1.13-.78.66-.21,1.55-.08,2.28-.39.72-.3,1.15-.98,1.54-1.41.12-.13.27-.24.38-.38.53.05.92-.22.95-.76.06-.02.14.02.19,0,.87-.35,1.45-.79,2.24-1.1.66-.26,1.63-.28,2.14-.53.48-.23,1.59-1.38,2.12-1.69.47-.28,1.11-.37,1.7-.68.3-.16.26-.02.57-.38.06-.06.15-.12.19-.19.76-.64,2.29-.64,2.92-.99.38-.21.47-.73.91-1,.55-.34,1.44-.36,1.97-.89.39-.39.25-.73.48-1.04.07-.1,1.67-1.5,1.78-1.55.86-.37,2.46-.47,3.29-1.01.34-.22,1.29-1.43,1.44-1.8.52-1.24.79-2.29,1.7-3.45,1.22-1.57,2.17-1.91,3.82-2.66,1.27-.59,2.95-3.09,3.53-4.29.05-.1,1.24-1.66,1.32-1.73.66-.52,1.46-.21,2.01-.47.44-.21.61-1.39,1.28-1.58.46-.13,1,.02,1.48-.05.84-.13,1.47-1.18,2.11-1.71,1.32-1.1,4.05-3.66,5.49-4.24.45-.18.89-.08,1.28-.25.59-.26,1.96-2.24,2.88-2.84.46-.31,1.05-.4,1.42-.67.79-.58,1.19-1.73,2.67-1.91l2.57-2.86c.13,0,.26,0,.38,0,.25.02.5.28,1.2.15.74-.14,4.01-1.99,4.72-2.52,1.37-1.03.57-2.33,3.13-2.4.73-.02,1.61.31,2.21.12.6-.19,1.22-1.2,1.85-1.59,1.18-.72,1.86-.42,2.95-.67.68-.15,2.54-1.36,3.1-1.86.9-.8,1.27-1.98,2.68-2.09.3-.02.62.21.9.15.57-.13.79-1.34,2.03-1.6,1.79-.38,3.3.16,5.29-.62,1.34-.52,2.57-2,3.54-2.37,1.17-.44,2.43-.35,3.19-1.48,1.02-1.51.95-1.09,2.43-1.66.53-.2.3-.93,1.38-.82ZM289.47,347.76c.71-1.31.09-4.57-1.84-3.65-.25.12-1.07,1.51-1.2,1.85-.77,1.89,1.79,1.77,3.04,1.8Z"/>
  <path class="cls-1" d="M160.57,174.81c0,.1-.32.3-.16.81.03.08.8,1.39,1.11,1.29.03.1-.01.26,0,.38-.3.13-.3.83,0,.95-.03.5.02,1.02,0,1.53-.05,1.26-.24,2.57-.19,3.92.01.37-.19.77.38.66,0,.44-.01.89,0,1.34-.52-.11-.38.26-.44.6-.28,1.48.37,4.38.44,6.18.01.37-.19.76.38.66,0,.25,0,.51,0,.76-.34.31-.25.45.19.38.01.5.01,1.02,0,1.53-.02.72-.06.88,0,1.72,0,.12-.02.26,0,.38.34,2.62,1.02,5.1,1.82,7.62.14.46.07.97.26,1.45.21.54,1.33,1.62,1.92,1.8.09.2.11.53.19.76-.37.19-.13.63-.06.91.25,1,.44,2.65,1.58,2.9.03.05-.03.14,0,.19.51.98.5.64,1.14,1.14.3.23.34.29.57.57.04.05-.03.32.19.47.3.21,1.96.53,1.91-.28.13,0,.27.02.38,0,.71-.14.53-.3.76-.76.06-.13.13-.25.19-.38.41.05.43.02.38-.38.06-.02.17.03.19,0,.41.05.43.02.38-.38.06-.02.17.03.19,0,.34.07.44-.04.38-.38.56-.42.49-.68.76-1.14.42-.2,1.2-.6,1.52-.87.18-.15.16-.43.19-.47,1.25-1.19,1.63-1.81,2.29-3.43.51.09.39-.12.38-.57.15-.24.24-.36.38-.57.29-.04,1.14-.59,1.24-.76.21-.36,0-.89.19-1.33.03-.07.66-.7.86-.95.05-.07.14-.12.19-.19.8-.36,2.02-1.03,2.29-1.91.05-.03.14.03.19,0,1.41-.71,3.94-1.62,5.13-2.4.42-.27.91-.83.97-1.34-.37-2.3-.41-4.78-1.19-6.99-.15-.43-.6-.56-.7-1.21-.16-1.03.18-2.39-.05-3.38-.11-.5-1.17-1.91-1.39-2.61-.32-1.04-.47-2.09.1-3.05.06-.02.14.02.19,0,1.14-.44.78-1.21,1.14-1.44.05-.03.92-.22,1.15-.28.45-.1,1.06-.11,1.53-.19-.08.58.21.38.58.3.44-.1.87-.45,1.39-.28.3.1.36.55.6.75.17.13,1.18.73,1.33.73s.27-.17.29-.17c1.77.21,1.63.95,2.52,1.38,1.5.74,1.62-.51,2.05,1.86-.73-.15-.5,1.46.3,1.54.27.03.43-.2.46-.2.25,0,.51-.01.76,0,1.67.07,3.35.28,5.05.39.32.02,1,.19.86-.39.13,0,.25,0,.38,0,.34-.01,1.09.3,1.14-.57,1.05-.31,4.32-1.03,4.4.67.02.41-.23.8-.22,1.16.03,1.08.48,2.02-.04,3.18-.2.44-.65.63-.88,1.03-.28.49-.36,1.05-.71,1.58-.65,1.01-1.65,1.91-1.81,3.34-.1.89.38,1.33.41,2.1.06,1.63-.52,3.99-.41,5.9.1,1.67,1.15,4.78,2.02,6.2.41.66,2.16,1.89,2.86,2.67.47.52.42,1.15,1.29,1.57.28.14,1.19.26,1.26.37.27.42-.25,3.77.2,4.85.3.72,2.35,1.87,2.47,2.31.1.37-.21.93-.16,1.46.02.21.91,3.8.99,3.98.21.46.66.49.95.96,1.07,1.71,2.96,7.53,3.78,9.76,1.19,3.24,1.67,7.3,4.57,9.55.87.68,2,.61,2.57,1.43.3.45.32.94.53,1.38.89,1.84,1.18,3.72,2.44,5.38.33.44,1.23,1.04,1.42,1.44,1.29,2.71.91,3.27,3.16,5.71-.03.42-.1.67.38.57,1.14,1.43,2.25,3.6,2.82,5.48.18.61.15,1.39.43,2.15.45,1.21.68.86,1.23,1.54.41.5.22,1.51.87,1.52.04.23-.06.87,0,.95-.05.41-.02.43.38.38,0,.12.01.26,0,.38-.03.23-.61.87.19.76,0,.06,0,.13,0,.19.05.32.15,1.46.19,1.53.02.04.3-.02.38,0,.02.12-.02.26,0,.38-.35.3-.24.45.19.38.21,1.34,1.64,4.13,2.58,5.14.3.33.81.35,1.13.77.67.89,2.78,6.03,3.06,7.24.62,2.68,1.31,5.19,2.29,7.82.17.45.94,2.44,1.14,2.68.24.29,1.27.4,1.66.35.64-.09,1.12-.58,1.71-.78,1.2-.4,2.94-.64,4.01-1.09.42-.18,0-.47,1.29-.76.16-.04.42.06.61-.05l2.06-1.1c.12-.02.26.01.38,0,.66-.06.52-.2.95-.3,2.16-.5,4.48-.35,5.54-2.76.1-.03.29.04.38,0,.55-.21,1.04-.65,1.28-.72.66-.19,2.28.32,2.51-.56.17-.66-.59-1.09.21-1.88.34-.34,2.91-1.14,3.6-1.37.32-.11.72.13.61-.43.13,0,.26-.01.38,0,.25.02,1.08.63.95-.19.13,0,.25,0,.38,0,.02,0,.16.2.44.19.16,0,1.76-.33,1.83-.39.06-.04,0-.26.01-.37.13,0,.25,0,.38,0,.02,0,.16.2.45.19.63-.03,1.78-.6,1.84-1.33.26-.13.51-.25.76-.38.1-.05.44-.02.71-.14.41-.2.94-.76,1.39-1,.29,0,1.46.05,1.53,0,.41.05.43.02.38-.38.57-.41.78-.87,1.14-1.34.02-.03.26.06.35-.03.14-.15.42-1.2.6-1.5.12-.13.26-.26.38-.38.58.07,1-.47,1.34-.86.28-.33.91-1.71.99-1.77.16-.12.55.05.82-.23.17-.19.47-1.02.48-1.33.26-.22.48-.38.76-.57.15-.1.38.2.52-.52.24-1.22,0-2.28.43-3.68.02-.06-.02-.13,0-.19.51-.26,1.4-.91,1.53-1.53.11-.03.27.03.38,0,.5-.12,1.41-.21,1.78-.41.37-.2.26-.48.31-.54.06-.07.13-.12.19-.19.71-.16,1.49-.17,2.18-.39.56-.18.81-.49,1.24-.67.61-.25,1.57.11,1.73-1.04.61-.2,1.28-.08,1.9-.48.43-.28.55-.81.86-1.05.96-.76.98-.8,1.83-1.61.45-.43,1.5-.7,2-1.06.46-.33.86-1.04,1.36-1.31.44-.24,1.04-.2,1.4-.51.3-.25.42-.88.85-1.25.87-.74.96-.35,1.82-1.51.37,0,.53-.26.77-.47.41-.38,1.15-.93,1.33-1.43.48-.25.95-.39,1.34-.57,1.13-.54.73-.6,1.14-1.53.66-1.47.57-1.17,1.91-2.1.04-.03.21.05.33-.05.19-.16.57-.81.63-1.1.04-.03.16.03.19,0,.41.05.43.02.38-.38.71-.59.56-.97.86-1.34.2-.23,1.19-.64,1.42-.76.56-.29,1.19-.51,1.14-1.34,1.18-.95,1.9-.82,2.86-2.1.47-.13,1.13-.41,1.14-.95.05-.02.14.03.19,0,.67-.34,1.55-.66,1.72-1.53.55-.4,1.06-.62,1.53-.95.38,0,.59-.19.57-.57.11-.09.18-.24.38-.38.45-.33.71-.24.76-1.14.06-.02.14.02.19,0,.87-.36.98-.32,1.53-.95.47-.55,1.01-.64,1.34-.95.4.05.43.02.38-.38.06,0,.13,0,.19,0,.36-.02,1.29-.08,1.54.09.52.35-.4,1.4.3,1.61,1.1.33,1.78-.62,2.06-1.52.33-1.06.06-1.44.68-2.47.04-.07.14-.12.19-.19.86-.18,1.84-.83,2.1-1.72.23-.08.52-.14.76-.19.13-.03.91.35.95-.57.09-.04.34.04.38,0,.41.05.43.02.38-.38.13-.09.36-.17.38-.19.39.06.44,0,.38-.38.88-.63.63-.71,1.91-.95.02,0,.1.23.36.11.28-.13.66-.62.58-.95l-.18-.11c.05-.06-.02-.34.18-.48s.45-.04.58-.09c.27-.1.59-.05.76-.38.13,0,.26,0,.38,0-.23.67,1.18.42,1.53.09.18-.17.14-.4.19-.47.07-.1.33-.14.37-.33.07-.29.04-.87,0-1.19.34-.31.25-.45-.19-.38-.02-.19.02-.38,0-.57.3-.99.77-.6,1.34-.85.95-.42,1.27-1.6,1.91-1.91,1.08-.52,1.8-1.03,2.86-1.53.79-.37,2.22-.63,2.85-.96.32-.16.41-.71.77-.94.59-.38,1.36-.47,2.18-1.06,1.21-.87,1.33-1.49,2.06-2.42.56-.71,1.57-.82,1.47-2.34.37-.12.78-.27,1.14-.38s.68-.38,1.05-.4c.68-.04,1.1.51,1.89.4,1.23-.17,2.79-.9,4.18-.79l1.46-1.49c.16-.04.43.05.57,0,2.01-.65,1.77-.97,2.86-2.38.3-.39.91-.76,1.12-1.17.34-.66.1-1.11.25-1.65.12-.41.81-1.02.91-1.77.07-.56-.23-1.08-.05-1.55.04-.1,1.24-1.54,1.39-1.68,2.54-2.38,4.34-1.33,7.33-1.83,1.15-.19,2.14-1.03,3.34-1.23.66-.11,1.47.02,1.97-.12.36-.1.73-.75,1.1-1,1.52-1,4.57-1.88,6.39-2.2.36-.06.76.22.65-.39.44-.02.89,0,1.34,0-.06.83,1.44.19,1.82.18.52-.02,2.27,1.11,2.67,1.53.51.54.29,1.14.85,1.15.06.55.03,1.34,0,1.91-.64-.1-.34,1.02-.47,1.53-.11.43-1,1.8-1.34,2.1-.53.46-1.54.48-1.62,1.33-.05.02-.13-.02-.19,0-.81.33-1.07,1.42-2.43,1.67-.94.17-4.97.08-5.39.33-.65.39-1.23,2.05-1.63,2.56-.09.12-2.36,1.64-2.51,1.69-.56.17-1.21-.12-1.77.14-.55.25-.68,1.25-1.08,1.4-.51.18-1.29-.02-1.96.33-.53.28-.84,1.07-1.36,1.5-1.86,1.52-4.11,1.97-6.01,2.96-.66.34-.93,1.09-1.74,1.5-.65.33-1.67.22-1.78,1.18-.03.01-.26.23-.57.38-1.6.76-1.21.96-2.31,1.79-.66.5-1.76.66-2.37,1.07-.56.38-.82,1.24-1.44,1.61-1.03.62-2.62.38-3.42,1.35-.22.26-.37.85-.56.96-.58.35-2.18-.19-2.41,1.24-.05.28.12.36.12.38,0,.19.02.39,0,.57l-1.53.57c-.18-.03-.39.03-.57,0-.02,0-.21-.33-.36-.17-.08.09,0,.34-.02.36-.03.02-.47.31-.57.38-1.11.72-2.42.84-3.62,1.34-.13,0-.25,0-.38,0-.51.01-1.77-.07-2.05.43-.12.22,0,.63-.13.92-.78,1.77-1.75,3.51-3.15,4.86-.63.61-1.46.73-1.91,1.14-.32.3-.35.77-.78,1.13-.66.55-1.68.52-2.35.89-.42.23-.82.85-1.26,1.12-.13,0-.25,0-.38,0-1.04-.02-2.1.73-2.48,1.72-.2.15-.24.22-.38.38-.53.09-2.07.54-1.53,1.14-.02.02-.02.3-.19.47-.28.27-.75.2-1,.72-.67,1.37-.1,2.29-1.4,4.13-.89,1.26-1.69,1.54-2.66,2.68-.73.86-3.64.57-4.91.82-2.47.48-5.5,1.61-7.49,3.19-.41.33-1.05,1.5-1.15,1.52-.83.2-.29-1.64-.28-1.99.02-.72.15-3.6-.28-3.94-.3-.24-.93-.27-1.26-.08-.56.33-.21,1.58-.58,2.09-.27.37-1.13.32-1.13.58v3.24c0,.07.29.33.47.29.36-.08.2-1.27.76-1.14.14.03.85.81.87,1.06.06.8-1.18,2.14-1.31,2.7-.3,1.33-.38,3.32-.62,4.72-.17.96-3.3,4.16-4.17,4.98-.32.3-.76.39-1.06.66-1.28,1.15-2.66,3.23-4.57,2.86-.6-.12-1.14-1.36-2.12-.58-.41.32-.13,1.42-.65,2.31-.25.43-.73.87-.76,1.53-.62.41-.93.76-1.53,1.14-1.27.81-.79,1.11-1.33,1.62-.23.21-2.16.99-2.75,1.46-.29.23-.28.53-.3.55-.37.32-.33.31-.57.57-.15.15-.85.2-.76.95-.38.15-.5.12-.76.19s-.36.19-.38.19c-.11.03-.29-.04-.38,0-.81.31-.48.35-.76.95-.15.32-.01.28-.38.57-.32.25-.2-.12-.57.57-.07.12-.12.26-.19.38-.45.04-.63.43-1.05.57-.79.26-2.72.27-3.25.75-.37.34-.24.95-.56,1.34-.83,1.01-2.39.73-3.14,2.67-.02.05.02.13,0,.19-.5-.12-.47.38-.57.76-.3,1.09-.16,1.17-.95,2.1-.74-.04-.91.37-1.14.95-.09.22-.15.87-.22.93-.08.06-1.1.1-1.42.2-.13.04-.99.37-1.04.4-.82.17-2.75-.81-3.05.38-.18.02-.39-.03-.57,0-1,.15-.76.35-.76,1.34-.42.16-.59.12-.95.19-1.49.28-.83.31-1.84.93-1.15.71-2.59.51-3.73,1.03-.62.28-1.53,1.42-1.97,1.48-1.49.21-1.75-2.06-2.83-1.71-.71.23.13,2.17-.69,2.56-.33.16-.78.06-1.15.19-.7.25-1.08.87-1.85,1.01-1.59.29-4.02-.01-5.64.46-.46.13-.98,1.12-1.52,1.34-.48.19-.93.06-1.39.32-.14.08-2.44,1.91-2.55,2.03-.49.51-.33,1.07-1.35,1.23-.12.02-.26,0-.38,0-.33,0-.68-.21-1.01-.16-.43.07-2.22,1.8-2.23,2.16,0,.16.19.26.19.29,0,.06,0,.13,0,.19-.68,1.14-1.77,1.11-2.73,1.75-.39.26-.82.9-1.08,1.01-.91.4-1.98-.1-2.74,1.28-2.75.35-5.67.03-8.42.34-.19.02-1.55.34-1.6.4-.07.07.03.56-.05.8-.11.33-.48.45-.62.72-.16.31-.13.74-.29,1-.15.26-.8.4-1.05.71-.46.57-.66,1.93-1.63,2.37-.49.22-.98,0-1.42.11-1.38.34-2.79.79-4.23.92-.96.09-2.6-.17-3.37.06-.37.11-.59.66-1.04.86-.82.36-2.01.18-2.89.54-.75.31-1.61,1.63-2.25,1.76-.31.06-.72-.16-1.09-.16-6.39-.01-12.73-.22-19.09.19-.39.02-1.58.12-1.86.2-.15.04-.88,1.46-1.72,1.76-.52.19-.93.07-1.34.19-.44.13-1.67,1.12-2.18,1.25-.59.15-4.03.44-4.73.43-.65,0-1.82-.62-2.49-.75-.73-.14-3.63-.45-4.04.04-.13.15-.01.56-.36.69-.37.13-.99-.03-1.41.02-.08-.3.25-.67.15-.91-.41-1.04-3.56-.22-4.43-.25-1.01-.03-2.01-.89-3.12-.41-1.26.54-.07,1.25-.33,1.58-.68.54-2.07.42-2.71-.07-.24-.18-.36-.62-.87-.94-.6-.38-1.11-.31-1.52-.53-.07-.03-.75-.7-1.1-.95-.09-.06-.15-.33-.39-.46-.65-.36-1.89-.47-2.09.46-1.04,0-2.45-.13-3.43,0-.2-.32-.52-.36-.85-.38-1.41-.11-2.89.29-4.4.2-2.59-.15-5.12-.35-7.72-.39.32-.58-1.45-.44-1.53-.38-.03.02.02.27,0,.38-.95.09-1.52.41-2.67.38.1-.8-.53-.21-.76-.19-.25.02-.51,0-.76,0,.14-.59-.44-.36-.95-.38-.61-.02-1.31-.04-1.91,0-.09-.24-.36-.2-.57-.19-.13,0-.25,0-.38,0-.29-.32-.74-.35-1.14-.38-1.31-.09-2.69.06-4.01,0-.9-.04-1.42-.02-2.29-.38-.1-.14-.27-.25-.38-.38-.03-.04.1-.25-.13-.38-.6-.35-.97,0-1.2,0-.32,0-1.83.06-1.91,0-.14-.1.35-.26-.38-.38-.41-.07-2.56-.3-2.67-.38-.12-.08.32-.31-.38-.38-.48-.05-1.03.01-1.53,0,.16-.61-.61-.35-1.14-.38-.18-.01-.72.04-.76,0-.12-.1.32-.32-.38-.38-1.4-.13-3.48-.26-4.82-.61-.65-.17-2.16-.83-3-1.1.02-.43-.25-.51-.56-.68-1.75-.95-3.77-.93-5.55-1.5-.47-.15-.72-.72-1.08-.83-.63-.19-1.45.1-2.16-.12-.55-.17-.88-.87-1.34-1.14-1.82-1.08-4.92-.68-6.82-1.38-.81-.3-1.18-1.21-1.89-1.36-.99-.21-2.02.49-3.34-.09-1.22-.54-.33-1.99-1.23-2.22-1.05-.26-.91,1.7-1.29,2.08-.77.77-1.93-.33-2.54-.52-.99-.31-2.17-.26-2.9-1.1-.3-.35-.35-.83-.76-1.14-1.64-1.24-5.53-.96-7.53-1.05-.91-.04-2.18-.37-3.06-.39-1.02-.02-2.36,1.29-2.71-.7-.22-1.26-.01-2.59-.04-3.76s-.22-2.18-.21-3.26c.01-1.15.55-2.56,0-3.71.01-.19-.01-.38,0-.57.38-1.31,1.64-.66,2.39,0,.33.28.61.94.85,1.05.39.19.9.03,1.41.31.95.52.56,1.81.98,2.45s1.63.3,2.27.4c.72.11,1.18.67,2.09.56.81-.1,1.88-1.05,2.59-1.24.52-.14,1.63.18,1.53-.47.44-.04.89.02,1.34,0,1.85.44,3.92.07,5.82.18.71.04,3.29.32,3.78.61.36.22.31.65.59.93.61.62,1.7.26,2.47.39.72.12,1.42.48,2.12.55.88.1,3.17-.29,3.59-.16.49.15.43.72.71,1.01.46.47,1.95.98,2.46,1.36.53.4,1.28,1.05,1.91,1.53.99.77,1.05,1.4,2.61,1.58,2.53.3,5.87.17,8.31.84.21.06,1.24.48,1.32.59.19.24.1.6.23.82.3.48,1.05,1.14,1.35,1.6.21.33.2.8.4,1.12.6.94,2.27.93,3.15,1.24.38.13.58.54.89.64,1.42.44,4.32.65,6.02,1.04,3.44.78,3.92.43,7.28.33,3.2-.09,3.88.51,6.79-1.41,1.59-1.05,5.11-.48,7.09-1.11.28-.09.42-.41.66-.48.13-.04,2.47-.37,2.66-.37.41-.02,1.45.62,2.08.7.79.1,1.94-.15,2.61.06.44.13.87.99,1.42,1.25,1.66.78,3.62.51,5.43,1.02.12.03.13.33.28.36.41.09,2.62.38,2.97.34,1.05-.09.8-.8,1.08-1.02.4-.3,2.23.87,2.82,1.02s1.18.04,1.86.24c1.08.32,1.21.78,2.67.55,1.53-.24.41-1.47,1.16-2.27,1.52,1.25,2.33-.27,3.4-.19,1.76.13,4.37,1.6,5.93,1.32.29-.05.49-.32.78-.36,1.62-.26,2.08-.06,3.53-1.24.68-.55.8-1.38,1.42-1.82.59-.41,1.74-.77,2.3-1.14.46-.3.78-1,1.11-1.27,1.12-.95,4.46-.44,5.95-.44.5,0,.97-.22,1.52-.21.85.02,1.16.47,1.73.58.45.08,4.46-.57,4.89-.76.15-.06,1.49-1.31,1.8-1.58.25-.21.2-.63.74-.7.52-.07,1.47.33,2.09.38,1.07.09,2.13-.2,3.03-.17,2.79.09,4.44.26,7.27-.02.77-.07,1.7.12,2.44-.04.69-.16,1.83-1.2,2.48-1.52.76-.38,1.38-.22,2.03-.45.42-.15,1.07-.91,1.49-1.01.45-.11,1.53.24,2.38.11.47-.07,2.82-.9,3.27-1.12,2.64-1.31-1.2-3.72-2.17-4.83-1.5-1.72-5.29-6.18-5.67-8.25-.2-1.08-.01-2.89-.32-3.88-.2-.63-1.16-1.06-1.36-1.69-.33-1.06-.27-2.63-.72-3.86-.36-1.01-1.21-1.91-1.61-2.78-.9-1.93-1.89-5.38-2.93-6.99-.36-.55-.98-.63-1.3-.99-1.01-1.12-2.65-2.23-3.45-3.41-.21-.3-.14-.75-.37-.96-.3-.27-1.15-.19-1.3-.32-.06-.05-.41-1.06-.72-1.47-.72-.97-1.92-1.77-2.56-2.88-.01-.06.01-.13,0-.19-.2-.96-.42-2.42-.65-3.26-.1-.36-.45-.34-.49-.49-.12-.54.12-1.25-.04-1.83-.13-.46-1.15-1.23-1.26-1.6-.5-1.73.13-4.59-.46-6.21-.18-.5-.8-.49-1.06-1.04-.39-.84-.06-1.92-.47-2.77-.37-.76-1.9-1.91-2.41-2.93-.39-.77-.42-1.66-.94-2.49-.44-.71-1.43-1.32-1.73-1.89-.22-.43-.14-.89-.31-1.22-.15-.3-.62-.35-.76-.58-.24-.41-.1-1.1-.58-1.7-1.17-1.48-1.3-.9-2.23-3.11-.89-2.1-1.86-4.27-3.04-6.31-.18-.32-.61-.55-.69-.83-.27-.92-.37-4.34-.24-5.31s.99-.91.4-2.67c-.97-2.9-4.12-3.84-5.73-6.09-1.14-1.59-.64-1.6-2.39-2.95-.92-.71-.45-1.4-.71-1.87-.34-.61-1.69-.68-2.33-.6-.23.03-1.93.41-2.02.46-.46.23-.3.98-.65,1.26-.31.25-1.32.24-1.9.58-.64.37-.96,1.11-1.41,1.5-.59.5-1.38.62-1.87.94-.34.23-1.16,2.14-1.62,2.77-1.03,1.42-2.53,2.46-3.62,3.68-.77.86-1.47,2.22-2.21,3.08-.53.61-3.06,2.35-3.93,2.94-.37.25-1.02.3-1.2.51-.11.13-.75,1.66-.79,1.9-.07.44.1.78.06,1.03-.03.21-.6.96-.75,1.32-.11.26-.13.83-.17.87-.05.05-.54.03-.84.2-1.15.67-.5,1.99-.45,2.97.03.46-.22.92-.17,1.29.09.68,1.65,2.53.53,3.09-.79.39-1.14-.21-1.48,1.19-.43,1.8-.22.78-.98,1.88-.38.54-.74,2.33-1.3,2.51-.57.18-1.04-.09-1.59.51-.17.19-.77,1.45-.9,1.77-.11.27,0,.66-.15,1-.2.46-.98.63-1.32.97-.44.44-.42,1.15-.68,1.42-.19.2-1.85.84-2.21.86-1.57.1-.78-1.93-1.07-2.74-.09-.27-.52-.35-.71-.63-1.23-1.82-.4-4.54-.98-6.55.02-.38-.01-.76,0-1.14.04-1.14-.03-.62-.42-1.59-.21-.53-.59-1.87-.83-2.22-.31-.46-1.05-.38-1.2-.9-.17-.59.01-1.74-.23-2.39-.31-.83-1.17-1.88-1.01-3.23l-.7-1.49c-.03-.25.02-.51,0-.76l.57-4.11c.02-.41.01-.82,0-1.23,0-.19,0-.38,0-.57.21-.52.45-1.47.4-2-.07-.75-.69-2.09-.78-3.05-.14-1.53.11-3.23,0-4.77-.03-.47-.35-.78-.37-1.13-.01-.41.32-.89.32-1.34,0-.76-.61-1.56-.71-2.31-.09-.64-.16-1.81-.19-2.48-.05-1.26.58-2.13-.31-3.5-.1-.15-1.54-1.81-1.65-1.88-.28-.16-.97.03-1.38-.05-.26-.05-.68-.26-1.06-.37-.06-.02-.13.02-.19,0-.07-.51-.95-2.06-.95-2.38v-5.91c0-.07.2-.32.21-.57.04-.78-.47-1.37-1.1-1.77-.51-.15-3.68.61-3.87.82-.36.37-.25,1.32-.48,1.8-.11.22-1.56,2.45-1.8,2.78-.8,1.12-2.77,2.84-3.32,3.93-.28.56-.26,1.15-.6,1.69-.37.59-1.33,1.22-1.8,1.82-1.14,1.45-2.17,3.11-3.24,4.58-.58.8-1.34.76-1.55.98-.19.2-.36,1.12-.58,1.47-.19.31-1.49,2.31-1.59,2.42-.29.27-.76.12-.84.21-.07.07.02.5-.12.74-.11.19-.49.27-.67.48-1.29,1.56-2.7,2.96-3.91,4.48-1.44,1.82-2.37,3.77-3.8,5.54-.87,1.08-1.3,1.14-2.12,2.45-1.25,2-1.3,1.86-3.06,3.14-.96.7-.75,1.2-1.21,1.94-.32.52-1.13.74-1.5,1.36-.27.44-.3,1.17-.59,1.51-.3.35-1,.36-1.44.65-.42.28-.65.85-.92,1.08-1.22,1-4.65,2.63-5.18,3.69-.16.32-.03.72-.27,1.06-.28.4-1.85,1.42-2.31,1.89-1.18,1.17-2.16,3.04-3.52,3.92-.71.45-2.16.66-2.48.95-.35.32-.43,1.28-.77,1.71-.43.54-1.69,1.16-2.1,1.71-.36.49-.37,1.13-.76,1.72-.35.52-1.39,1.1-1.51,1.35-.26.53.05,1.17-.19,1.72-.33.72-3.29,2.63-4.09,3.16-.52.35-.83,1.1-1.62,1.04-.37-.03-.69-.37-1.16-.4-1.12-.05-1.07.97-1.71,1.55-.28.25-.69.3-.95.58-.33.36-.38,1.13-.88,1.41-.4.23-1.23.27-1.78.51-.68.29-2.51,1.95-3.08,1.14-.13-.19.13-4,.11-4.69-.02-1.58-.43-3.5-.19-5.13.09-.6,3.27-6.29,3.63-6.49.2-.11.52-.05.69-.16.28-.17,1.26-1.94,1.71-2.24.36-.24,1.52-.37,1.73-.61s.24-1.26.53-1.66c.24-.33.9-.51,1.23-.87.3-.33.55-1.17.81-1.38.35-.28,1.15-.24,1.54-.62.38-.37.92-1.61,1.13-1.87.11-.14.63-.24.92-.52,1.65-1.6,1.89-2.75,4.18-3.83,1.78-.84,1.98-3.02,3.25-4.19.43-.4.86-.37,1.23-.68.3-.25,1.96-2.25,2.28-2.68,1.13-1.5,1.58-3.43,2.97-4.66,1.39-1.23,2.87-.97,4.4-1.32,1.04-.24,4.02-2,4.94-2.69.35-.26,1.26-1.14,1.34-1.52.11-.6-.18-1.73.1-2.19.12-.19.57-.32.77-.56,2.28-2.81,4.18-6,6.63-8.72,2.34-2.6,4.93-5.06,7.77-7.02.95-.65,1.52-1.88,2.18-2.59.38-.41,2.05-.99,2.76-1.44,1.11-.71,3.11-2.32,3.91-3.34,1.34-1.7.17-4.66.77-5.9.1-.21.92-.67,1.24-1.05.36-.43.57-1.17.85-1.43.76-.69,2.95-.73,2.96-2.09.05-.02.14.02.19,0,1.12-.53,3.53-1.3,4.31-2.27.58-.73.33-1.55.46-2.3.26-1.49.59-4.64,1.1-5.86.56-1.33,2.11-1.05,2.62-1.58.37-.38.22-1.06.38-1.53.75-2.24,3.42-1.3,5.16-1.52.85-.1,1.49-.83,2.39-.12.97.77.09,1.78.17,2.87.13,1.74,1.19,3.7,1.34,5.54.11,1.38.06,3.26,0,4.67ZM123,209.33c1.28.21.43-2.19.85-2.87.47-.39,1.12.28,1.68.16,1.55-.33,2.4-2.98,3.03-4.22.14-.28.49-.45.62-.71.7-1.34-.19-1.83-.26-2.97-.06-.91.78-2.26-.82-1.93-1.79.36-.75,1.64-1.19,2.63-.13.29-.97.93-1.28,1.39-.69,1-1.66,3.3-2.42,4.06-.26.26-.69.27-.87.46-.54.56-1.85,1.9-1.34,2.68.42.65,2.36-.15,2.01,1.33ZM155.94,200.97c-1.11.33-.29,2.1.72,2.06.38-.11.8-2.52-.72-2.06ZM118.95,210.51c-.39.1-1.42.98-1.48,1.4-.19,1.31,2.07,1.97,2.3.75.14-.77.25-2.43-.81-2.16ZM177.09,212.77c-.53.18-.9,2.4.16,2.45,1.84.09,1.07-2.86-.16-2.45ZM96.24,235.68c-1.47.44.78,3.02,1.39,3.3.78.36,1.41.06,1.52-.78.18-1.46-1.41-1.43-2.09-2.46-.26-.14-.54-.15-.82-.06ZM314.83,284.25c.28-.17.55-2.07-.46-2.26-1.98-.36-1.01,3.17.46,2.26Z"/>
  <path class="cls-1" d="M164.96,286.18c.57.11.34-.28.41-.63s.12-1,.26-1.27c.18-.33.68-.34.82-.71.15-.4.07-1.07.28-1.62.46-1.21,1.32-1.93,1.63-3.51.81-4.09-1.35-5.28-1.13-8.37.08-1.07.73-2.07.78-2.86.14-2.21-.71-4.76.34-7.09.77-1.72,2.83-1.74,4.47-1.36,1.02.24.71.96,1.18,1.49.59.67,1.58.31,1.96,1.48.11.35.03.74.2,1.14.21.51.98.85,1.15,1.33.26.76.33,2.06.63,2.96.06.17.32.14.36.28.08.31-.06.64.1,1.01.19.44,1.17.61,1.16,1.33.06,1.74-.36,3.94-.12,5.65.06.43.32.64.38.95.19,1.01-.94,3.22-.95,4.77-.05,5.22.25,10.41.21,15.64-.01,1.63.03,3.34,0,4.95-.04,2.61-1.55,4.53-1.91,7.06-.05.36.05,1.74,0,1.8-.09.09-1-.13-1.3.04-.36.21-.56,1.47-1.56,1.6-.21.03-1.49-.48-1.71-.61-1.24-.75-1.31-4.33-2.3-5.42.01-.18.02-.4,0-.57-.07-.71-.28-.26-.38-.38-.06-.07.05-.57,0-.76-.19-.8-.45-1.93-.66-2.68s-.74-1.49-.86-2.28c0-.13,0-.25,0-.38-.01-.7-.1-2.15-.38-2.73-.11-.23-.35-.09-.39-.13-.07-.06-.12-.13-.19-.19-.17-.34-.32-2.01-.39-2.1-.03-.04-.27.01-.38,0-.06-.48.04-1.03,0-1.53.38-.63.3-2.03-.28-2.49-.22-.17-.61-.17-.77-.38s-.23-.93-.28-1.25c-.06-.35.22-.76-.39-.65,0-.5-.03-1.03,0-1.53Z"/>
</svg>