<?xml version="1.0" encoding="UTF-8"?>
<svg id="Capa_1" data-name="Capa 1" xmlns="http://www.w3.org/2000/svg" viewBox="0 0 500 500">
  <defs>
    <style>
      .cls-1 {
        fill: #575941;
      }
    </style>
  </defs>
  <path class="cls-1" d="M407.36,250.79c-.72-15.83-5.69-33.99-11.26-49.43-.34-.94.24-2.1-.14-3.02-4.65-11.57-14.33-29.09-22.9-39.83-20.37-25.53-37.55-12.16-16.7,13.2,41.2,50.1,41.57,145.4-35.68,191.31-8.58,5.1-17.32,9.14-26.17,12.18-7.26-1.3-12.72,2.05-23.71,3.42-64.85,8.07-104.63-23.65-125.88-48.68-41.98-49.44-43.86-144.73,32.66-191.85,40.85-25.16,85.52-26.09,130.19-7.96,1.74.71,1.96,3.56,5.7,5.25,6.33,2.86,35.92,7.52,37.96,1.4.45-1.34-16.38-14.74-19.6-16.69-23.79-14.42-57.1-23.99-97.4-20.85-6.46.5-18.01,1.83-23.97,2.97-14.88,2.83-19.96,8.61-35.55,11.24-1.31,2.47-4.3,3.05-8.84,3.56-2.1,5.7-14.56,13.89-22.97,19.56-3.05,2.05-4.89,4.27-8.66,6.58-6.37,11.18-17.41,22.05-23.59,33.26-2.74,4.97-7.86,14.11-9.5,18.72-2.05,5.77-3.46,13.91-4.83,19.98-.82,3.63-1.83,8.91-2.28,12.25-1.03,7.72-2.01,16.7-1.55,24.32.97,15.82,6.23,33.89,12.04,49.24.35.93-.2,2.1.18,3.02,4.83,11.49,14.79,28.86,23.52,39.46,4.7,5.7,10.95,11.87,18.51,17.96-.03.07-.08.14-.11.21-.47,1.33,16.15,15,19.33,17,23.56,14.8,56.72,24.88,97.05,22.38,6.47-.4,18.04-1.55,24.02-2.59,14.92-2.59,20.09-8.3,35.72-10.67,1.35-2.45,4.34-2.99,8.9-3.42,2.19-5.66,14.78-13.66,23.28-19.2,3.08-2.01,4.95-4.2,8.76-6.44,6.55-11.08,17.75-21.77,24.11-32.88,2.82-4.93,8.08-13.98,9.79-18.56,2.15-5.74,3.68-13.85,5.14-19.9.88-3.62,1.97-8.88,2.47-12.21,1.15-7.71,2.28-16.66,1.93-24.3Z"/>
  <path class="cls-1" d="M247.45,267.58h12.2c33.89,0,51.86-12.88,51.86-38.3s-20.67-44.23-56.77-44.23h-36.26c-6.78,0-9.49,1.02-9.49,4.75,0,8.81,11.18,2.03,11.18,24.06v61.52c0,20.17-11.18,15.42-11.18,23.56,0,3.56,2.71,4.75,9.49,4.75h26.94c6.95,0,9.32-1.19,9.32-4.75,0-8.13-10.68-3.39-10.68-23.56v-4.41c0-3.05.68-3.39,3.39-3.39ZM244.06,199.62c0-3.56.85-4.58,10.34-4.58,17.62,0,32.71,13.73,32.71,36.94,0,16.95-11.02,25.25-28.64,25.25-11.69,0-14.4-1.52-14.4-5.42v-52.19Z"/>
</svg>